<?xml version="1.0" encoding="UTF-8"?>
<svg id="Layer_1" data-name="Layer 1" xmlns="http://www.w3.org/2000/svg" version="1.1" viewBox="0 0 12.1 13.7">
  <path d="M8.6,13H3.4c-1.9.1-3.4-1.5-3.4-3.3v-5.6C0,2.2,1.5.6,3.4.6h5.2c1.9,0,3.4,1.5,3.4,3.4v5.6c0,1.9-1.5,3.4-3.4,3.4h0ZM3.4,2.1c-1.1,0-1.9.9-1.9,1.9v5.6c0,1.1.9,1.9,1.9,1.9h5.2c1.1,0,1.9-.9,1.9-1.9v-5.6c0-1.1-.9-1.9-1.9-1.9,0,0-5.2,0-5.2,0Z" fill="#23374d" stroke-width="0"/>
  <path d="M5.1,10.5h-1.9c-.4,0-.8-.3-.8-.8s.3-.8.8-.8h1.9c.4,0,.8.3.8.8s-.3.8-.8.8Z" fill="#23374d" stroke-width="0"/>
  <path d="M8.9,5H3.2c-.4,0-.8-.3-.8-.8s.3-.8.8-.8h5.7c.4,0,.8.3.8.8s-.3.8-.8.8Z" fill="#23374d" stroke-width="0"/>
  <path d="M8.9,7.1H3.2c-.4,0-.8-.3-.8-.8s.3-.8.8-.8h5.7c.4,0,.8.3.8.8s-.3.8-.8.8Z" fill="#23374d" stroke-width="0"/>
  <path d="M8.9,10.5h-1.9c-.4,0-.8-.3-.8-.8s.3-.8.8-.8h1.9c.4,0,.8.3.8.8s-.3.8-.8.8Z" fill="#23374d" stroke-width="0"/>
</svg>