<?xml version="1.0" encoding="UTF-8"?>
<svg enable-background="new 0 0 175.2436 184.3391" version="1.1" viewBox="0 0 175.2436 184.3391" xml:space="preserve" xmlns="http://www.w3.org/2000/svg">
<style type="text/css">
	.st0{opacity:0.22;fill:#303030;}
	.st1{fill:#303030;}
	.st2{fill:#EAAE47;}
	.st3{fill:#B4813F;}
	.st4{fill:#8C6734;}
	.st5{fill:#362B1C;}
	.st6{fill:#EAD2C9;}
	.st7{fill:#FFFFFF;}
</style>
	<path class="st0" d="m90.337 184.34c37.339 0 67.653-4.8802 67.653-10.891s-30.314-10.891-67.653-10.891-67.653 4.8802-67.653 10.891 30.314 10.891 67.653 10.891z"/>
		<path class="st1" d="m110.8 138.95c-0.4059 0.3584-0.6555 0.8754-0.6821 1.4152-0.0271 0.5486 0.1708 1.0162 0.5031 1.4394 0.5662 0.7209 1.1413 1.4384 1.6672 2.1894 0.3397 0.5261 0.652 1.0644 0.9513 1.6149 0.3113 0.571 0.618 1.1387 0.8564 1.7424 0.358 1.171 0.566 2.4009 0.6889 3.6192 0.0403 0.7824 0.037 1.5674-0.0179 2.3493-0.0609 0.8738-0.1849 1.7399-0.3212 2.6042-0.0669 0.429-0.129 0.8608-0.1157 1.296 0.0161 0.5124 0.086 0.939 0.2841 1.4143 0.1281 0.3048 0.3327 0.5766 0.5308 0.839 0.2498 0.3311 0.6057 0.5995 0.9137 0.8648 0.7166 0.617 1.5314 1.1014 2.3561 1.557 0.484 0.2662 0.9673 0.4023 1.5212 0.2865 0.5227-0.1098 0.9861-0.4261 1.2781-0.8731 0.2928-0.4471 0.3963-0.9984 0.2865-1.5212-0.1028-0.4901-0.4216-1.029-0.8723-1.2782-0.7472-0.412-1.4709-0.8505-2.1371-1.3784-0.0386-0.0383-0.0767-0.0768-0.1141-0.1158 0.0265-0.4313 0.1055-0.8598 0.1709-1.2859 0.0832-0.5416 0.1594-1.0848 0.2112-1.6298 0.1234-1.2901 0.1098-2.5744-0.0064-3.8643-0.104-1.158-0.3183-2.3155-0.62-3.4377-0.2215-0.8273-0.537-1.6174-0.9375-2.3735-0.1735-0.3279-0.3534-0.6522-0.531-0.9778-0.7011-1.288-1.5731-2.4637-2.4651-3.6228-0.1795-0.2331-0.3628-0.463-0.5446-0.694-0.3251-0.4148-0.8997-0.6573-1.4152-0.6821-0.1251-0.0063-0.2502-7e-4 -0.3736 0.0163-0.3925 0.054-0.7668 0.2226-1.0657 0.4867zm7.5288 17.956c0.0017 0.021 0.0034 0.042 0.0051 0.0629-9e-4 -8e-4 -0.0017-0.0017-0.0025-0.0026-0.0013-0.02-0.0022-0.0401-0.0026-0.0603z"/>
		<path class="st1" d="m75.91 145.58c-0.4058 0.3584-0.6546 0.8753-0.6819 1.4161-0.0244 0.4938 0.1427 1.082 0.5037 1.4383 0.4709 0.467 0.9384 0.9276 1.3389 1.4526 0.1222 0.2206 0.2219 0.4471 0.3124 0.6826 0.3054 0.9452 0.5358 1.9185 0.7311 2.8912 0.0826 0.4127 0.1696 0.8266 0.2319 1.2421 0.0511 0.3359 0.0926 0.6683 0.1276 1.0036 0.0041 0.3487 0.0082 0.6947-0.0133 1.0434-0.0244 0.3796-0.067 0.7526-0.1136 1.1298-0.3769 1.8659-0.9773 3.6851-1.7527 5.4246-0.3871 0.7541-0.8119 1.4841-1.3206 2.1659-0.2846 0.3813-0.5866 0.7496-0.8827 1.1221-0.2829 0.3562-0.4825 0.7792-0.6434 1.2013-0.1209 0.3183-0.1605 0.6824-0.1699 1.0216-0.0178 0.6041 0.1627 1.1206 0.3784 1.6737 0.1319 0.3387 0.3456 0.6455 0.54 0.9498 0.1955 0.3058 0.4069 0.6207 0.6389 0.9034 0.326 0.3966 0.6692 0.7674 1.0443 1.1193 0.7689 0.7209 1.5525 1.4295 2.3416 2.1287 0.137 0.1182 0.2731 0.2366 0.41 0.3548 0.3066 0.1983 0.6415 0.3083 1.0052 0.3272 0.5235 0.0264 1.0466-0.1559 1.4394-0.503 0.4059-0.3583 0.6554-0.8754 0.6819-1.416 0.0233-0.4705-0.1337-1.1109-0.5029-1.4385-0.6952-0.6173-1.3783-1.2475-2.0643-1.8738-0.5626-0.5133-1.0711-1.05-1.5286-1.6541-0.0952-0.155-0.186-0.3112-0.2691-0.4725 0.2439-0.3513 0.5401-0.6734 0.7996-1.0074 0.3369-0.4334 0.6359-0.8917 0.9253-1.3573 0.6938-1.1169 1.2085-2.3513 1.6653-3.5804 0.4059-1.092 0.7611-2.2011 1.0167-3.3387 0.3219-1.4269 0.5016-2.8722 0.3731-4.3337-0.1193-1.3568-0.3878-2.6827-0.6969-4.009-0.0868-0.3743-0.1957-0.7463-0.3033-1.1151-0.1561-0.5397-0.337-1.0717-0.54-1.5955-0.1817-0.4689-0.4774-0.8705-0.7591-1.2825-0.3913-0.5703-0.9186-1.0512-1.4076-1.5357-0.3962-0.3929-0.8459-0.6543-1.416-0.682-0.1252-0.0062-0.2503-6e-4 -0.3735 0.0164-0.3923 0.0539-0.7664 0.2225-1.0659 0.4867z"/>
		<path class="st1" d="m166.07 62.13c-0.4289 0.3788-0.616 0.8614-0.6821 1.4153-0.1131 0.9447-0.0426 1.9152-0.0088 2.8639 0.0308 0.8574 0.0443 1.7037-0.0681 2.5519-0.0729 0.2867-0.1711 0.5621-0.2852 0.8346-0.6263 1.1627-1.4776 2.1882-2.3258 3.1953-0.353 0.4006-0.7128 0.7966-1.1053 1.1586-0.485 0.4477-0.9844 0.8783-1.4887 1.3046-0.9026 0.7617-1.8309 1.485-2.7986 2.1604-1.6707 1.0424-3.4449 1.9345-5.2928 2.618-0.9362 0.284-1.9336 0.3746-2.8989 0.5073-0.511 0.0703-1.0032 0.4526-1.2782 0.8731-0.2919 0.447-0.3954 0.9983-0.2865 1.5211 0.1098 0.5229 0.426 0.9854 0.8731 1.2782 0.4735 0.309 0.9747 0.3616 1.5212 0.2865 0.5897-0.0811 1.1804-0.1606 1.7691-0.2553 0.3938-0.0636 0.7852-0.1442 1.1665-0.2613 0.5432-0.1686 1.0718-0.38 1.6009-0.5881 1.0387-0.4075 2.0494-0.8999 3.034-1.4249 2.1285-1.1331 4.0374-2.6161 5.8585-4.1853 0.4184-0.361 0.8269-0.7318 1.2229-1.1181 0.5062-0.4937 0.9697-1.047 1.4249-1.5863 0.738-0.8764 1.4602-1.7618 2.0761-2.7301 0.3686-0.5791 0.6729-1.2062 0.914-1.8479 0.2228-0.5927 0.3217-1.2399 0.3812-1.8669 0.1042-1.11 0.0189-2.2197-0.0099-3.332-0.0155-0.5832-0.0252-1.174 0.044-1.7551 0.0601-0.503-0.1763-1.0687-0.503-1.4393-0.3584-0.4058-0.8753-0.6546-1.4153-0.6821-0.1244-6e-3 -0.2489-3e-4 -0.3716 0.0165-0.3932 0.0541-0.7682 0.2229-1.0676 0.4874z"/>
		<path class="st1" d="m172.32 66.667c-0.4129 0.2433-0.8554 0.4298-1.3041 0.597-1.0293 0.3213-2.0866 0.5033-3.1511 0.6724-1.0892 0.1722-1.7825 1.3553-1.5648 2.3934 0.109 0.5229 0.4253 0.9863 0.8722 1.2782 0.4661 0.3049 0.9821 0.3719 1.5212 0.2865 0.8757-0.1385 1.7644-0.2702 2.6191-0.5118 0.9567-0.2703 1.9526-0.5882 2.8137-1.0962 0.4807-0.2842 0.8479-0.6476 1.0229-1.1932 0.1607-0.4988 0.1175-1.0514-0.1159-1.5202-0.2415-0.4839-0.6774-0.8576-1.1932-1.0229-0.2803-0.0902-0.6128-0.1228-0.928-0.0795-0.2122 0.0292-0.4166 0.0928-0.592 0.1963z"/>
		<path class="st2" d="m41.852 34.362c1.8364-2.228 2.9684-4.9103 3.2883-7.7423-0.331 2.8784-1.4981 5.5594-3.2883 7.7423z"/>
		<path class="st2" d="m18.444 33.858c-0.0974 0.086-0.193 0.1728-0.288 0.2613 0.0731-0.1177 0.1469-0.2345 0.2213-0.3505 0.0222 0.0298 0.0443 0.0595 0.0667 0.0892z"/>
		<path class="st3" d="m76.809 0.3087c-1.3287 0.1827-2.6807 0.4876-4.0643 0.8105-1.6472 0.3863-3.2746 0.8696-4.5084 1.2474-1.4653 0.4488-2.9262 0.9834-4.2151 1.4551l-0.0428 0.0156c-0.2462 0.0899-0.4922 0.1815-0.7382 0.2731-1.0572 0.3941-2.1445 0.7993-3.2463 1.0764l-0.1284 0.0176c-0.2761 0.038-0.4902 0.0605-0.6941 0.073-0.5809 0.0372-1.169 0.0561-1.7706 0.0737l-0.4824 0.0155-0.1356 4e-3 -0.0306 0.0011c-0.6459 0.0229-1.3137 0.0466-1.9585 0.1353-0.0727 0.01-0.1446 0.0207-0.2171 0.0324-1.0343 0.1681-1.9559 0.3619-2.8176 0.5926-0.6842 0.1825-1.4049 0.4132-2.3369 0.748-1.5491 0.5578-3.1123 1.2632-4.6461 2.0965-0.684 0.3703-1.3863 0.7682-2.0873 1.1826-0.5796 0.3428-1.1538 0.7432-1.6604 1.0964l-0.3534 0.2452c-0.5632 0.3887-1.1257 0.805-1.7198 1.2726 3.244 2.3064 5.3977 5.7308 6.0644 9.6458 0.8707 5.1106-0.9339 10.217-4.8273 13.66 1.4349 1.9121 2.3668 4.08 2.7697 6.4465 1.3769 8.0903-4.0839 15.792-12.173 17.169-0.1592 0.0271-0.3187 0.0516-0.4777 0.0734-2.2114 0.3041-4.406 0.116-6.5228-0.5588-2.2092 4.0081-6.0536 6.7454-10.55 7.511-0.1583 0.0269-0.317 0.0513-0.4744 0.073-1.5582 0.2142-3.1285 0.1822-4.6672-0.0953-0.0468 0.9094-0.06 1.7343-0.0429 2.524 0.0297 1.435 0.0773 2.9628 0.301 4.4775 0.211 1.4281 0.538 3.0039 1.0293 4.9591 0.3321 1.3203 0.7461 2.6905 1.2655 4.1888l0.0628 0.181c0.4267 1.2299 0.8679 2.5018 1.1797 3.7967 0.1031 0.5462 0.2307 1.2658 0.3025 1.9873 0.0727 0.7206 0.139 1.4901 0.1973 2.2872 0.0717 0.9812 0.113 2.0413 0.1431 2.8154l0.0074 0.1791c0.0209 0.5056 0.0414 1.005 0.0672 1.5045 0.1485 2.867 0.7302 5.8508 1.7783 9.1217 0.4657 1.455 1.0669 2.8376 1.6937 4.2437 0.7258 1.6317 1.6526 3.1544 2.379 4.2987 0.3926 0.62 0.8513 1.1966 1.2884 1.7272 0.4775 0.5811 0.9487 1.1502 1.4628 1.7239 0.5242 0.5839 1.0531 1.1645 1.5829 1.7451 0.5136 0.5629 1.0272 1.1267 1.5363 1.6946l0.3175 0.3529 0.0201 0.0223c0.8555 0.9489 1.8252 2.0245 2.6708 3.1176 0.8941 1.1592 1.7234 2.396 2.5351 3.781 0.798 1.3639 1.5334 2.5836 2.4534 3.6989 0.5454 0.663 1.1587 1.3456 1.8748 2.087 0.4881 0.5034 1.0142 1.0379 1.5542 1.5354l0.2674 0.246c0.4398 0.4064 0.9294 0.8587 1.4316 1.2643 0.6049 0.4861 1.2171 0.9394 1.8716 1.3858 1.3933 0.9542 2.842 1.7992 4.0754 2.4999 0.7691 0.437 1.5514 0.9029 2.2417 1.3141l0.0366 0.0216c0.635 0.3786 1.2558 0.7476 1.8694 1.1015 1.3896 0.8031 2.8684 1.4643 4.1316 2.0052 1.6869 0.7223 3.2392 1.2449 4.7455 1.5975 1.3308 0.3114 2.7148 0.3994 4.0532 0.4845l0.3589 0.0236 0.3208 0.0197c0.5825 0.0354 1.2428 0.0755 1.8743 0.1792 0.7739 0.1272 1.5395 0.3472 2.2515 0.5661 0.6978 0.2139 1.4528 0.4414 2.2452 0.6559l0.0232 0.0055 0.0555 0.0156c0.5285 0.1429 1.1274 0.3048 1.7108 0.4811l0.4884 0.1733c1.2938 0.4601 2.6317 0.9359 3.9987 1.3337 1.2941 0.3775 2.6525 0.5609 3.9661 0.7384l0.2362 0.0313c1.6231 0.2196 3.2513 0.2615 5.0588 0.2906 0.1572 0.0025 0.3145 0.0059 0.4729 0.01l0.0258-1e-4c0.5758 0.0132 1.2285 0.0282 1.8431-0.0258 0.4355-0.0387 0.8827-0.0895 1.3292-0.1509 0.3432-0.0472 0.7121-0.1046 1.0964-0.1705 1.7423-0.3042 3.4196-0.808 4.9728-1.307 1.3273-0.4279 2.6799-0.7963 4.1351-1.1263 0.7295-0.1466 1.4739-0.2782 2.1936-0.4055l0.0416-0.0069 0.0242-0.0043c0.8609-0.1525 1.7512-0.3102 2.6203-0.4929 0.2119-0.0447 0.4231-0.0884 0.6352-0.1322 0.8378-0.174 1.7041-0.3539 2.5363-0.5754 0.9854-0.263 1.865-0.5164 2.689-0.7749 1.4839-0.4679 2.8748-1.1583 4.1723-1.8254 1.6094-0.8284 3.0981-1.6664 4.551-2.5618 0.7131-0.4383 1.4214-0.9124 2.1064-1.3708l0.0432-0.029 0.0434-0.0292c0.5795-0.3884 1.1024-0.7376 1.6342-1.0789 0.2275-0.1451 0.454-0.2909 0.6805-0.4367l0.0269-0.0173c0.9366-0.6029 1.9051-1.2262 2.8909-1.769l0.4606-0.2288c0.6427-0.3178 1.3032-0.6443 1.9442-0.982 0.5887-0.3103 1.3474-0.7353 1.9936-1.2707 0.6616-0.5476 1.4214-1.213 2.0403-1.9971 0.1512-0.1914 0.3006-0.3844 0.449-0.5772l0.063-0.081 0.0211-0.0274c0.3025-0.392 0.6453-0.8364 0.9945-1.25 1.1167-1.3228 2.0747-2.3671 3.0149-3.2866 0.4131-0.4035 0.8509-0.8011 1.2372-1.1519 0.1686-0.1525 0.3365-0.3048 0.5041-0.4589 0.5536-0.5085 1.0961-1.0539 1.6494-1.6147 0.1878-0.1896 0.3773-0.3785 0.5683-0.5686 0.8721-0.8679 1.7738-1.7654 2.4771-2.782 1.0572-1.528 1.9536-3.1708 2.7109-4.5907 0.2037-0.3806 0.4048-0.7616 0.6058-1.1427l0.0274-0.0512c0.4658-0.881 0.9474-1.792 1.4422-2.6765 0.4674-0.8341 0.8429-1.5376 1.1817-2.2141 0.222-0.4422 0.4314-0.9038 0.6443-1.3773 0.109-0.2417 0.2175-0.4807 0.3272-0.7173 0.5615-1.2091 1.126-2.5078 1.8303-4.2109l0.2347-0.5693c0.5051-1.2292 1.0215-2.4857 1.6563-3.6574 0.1258-0.2319 0.2553-0.4626 0.3856-0.6935l0.0145-0.0257c0.2648-0.47 0.5386-0.956 0.7666-1.4472 0.5488-1.1762 0.8819-2.4619 0.9632-3.7182 0.0634-0.9937 0.0961-1.9186 0.1-2.8275 0.0023-0.4356-4e-3 -0.8726-0.0104-1.3088l-0.0027-0.037h0.0022c-0.0037-0.265-0.0074-0.53-0.0088-0.797l-3e-4 -0.0544c-0.0052-0.7525-0.0106-1.5306-0.0409-2.2958-0.0269-0.6516-0.0785-1.331-0.1241-1.9303l-0.0042-0.0563-0.0181-0.238-0.0335-0.4445c-0.0429-0.549-0.0914-1.1858-0.1244-1.7948-0.0339-0.6173-0.0376-1.2469-0.0113-1.9248 0.033-0.4342 0.0687-0.9029 0.1438-1.3617l0.0253-0.1543c0.0352-0.2203 0.0713-0.4408 0.1109-0.6608 9e-3 -0.0523 0.0188-0.1047 0.0286-0.157l0.0142-0.0765 0.0145-0.0769 0.0054-0.0292c0.0615-0.3257 0.1312-0.6949 0.1521-1.0513l0.0068-0.1139 0.0018-0.0304c0.025-0.4418 0.0481-0.8496 0.0162-1.2739l-0.0309-0.413c-0.0164-0.2262-0.0391-0.4412-0.0617-0.6562l-0.0161-0.1607c-0.0405-0.3997-0.0926-0.8046-0.143-1.1962l-0.0123-0.0962-0.0471-0.3616c-0.0765-0.5877-0.1636-1.1835-0.2481-1.7606-0.068-0.463-0.136-0.926-0.1989-1.3897-0.1447-1.072-0.2586-2.1662-0.3385-3.2522-0.018-0.2381-0.0336-0.4764-0.0483-0.7149l-0.0033-0.0509c-0.0273-0.4233-0.0584-0.9032-0.1081-1.3613-0.0846-0.7607-0.184-1.5453-0.3039-2.3986-0.0982-0.7017-0.2457-1.4133-0.3758-2.0412l-0.0069-0.0337c-0.1887-0.9026-0.3801-1.8176-0.6341-2.7059-0.1952-0.6761-0.425-1.4008-0.723-2.2807l-0.1147-0.3385-0.0086-0.0247c-0.1965-0.5806-0.3998-1.181-0.6372-1.7632l-0.0714-0.1746c-0.2495-0.6144-0.5074-1.2497-0.8089-1.8707-0.3599-0.7396-0.732-1.4815-1.0525-2.1189-0.2726-0.5418-0.5428-1.0999-0.8186-1.6718-0.4779-0.9901-1.0109-2.0944-1.5809-3.1221-0.6956-1.2527-1.448-2.5066-2.3003-3.8335-0.9331-1.4536-1.8032-2.6917-2.66-3.785-0.5197-0.6651-1.0842-1.3361-1.5822-1.928l-0.0484-0.0572-0.0464-0.0556-0.0433-0.0515c-0.3439-0.4087-0.6963-0.8275-1.0367-1.2456l-0.3029-0.3721c-0.7837-0.962-1.594-1.9567-2.2863-3.0059-0.4234-0.6436-0.7906-1.2576-1.1226-1.8772l-0.1418-0.2667c-0.267-0.5031-0.5425-1.0223-0.86-1.5085-0.3589-0.5481-0.7808-1.0979-1.2898-1.6805-0.5031-0.5782-1.0601-1.1807-1.6556-1.7905-0.1486-0.1914-0.2996-0.381-0.4547-0.5683-0.555-0.6684-1.1606-1.3419-1.906-2.1197-0.9642-1.0062-2.0709-1.9591-3.2895-2.8323-0.5638-0.4037-1.1725-0.7666-1.7612-1.1177l-0.0312-0.0186-0.3832-0.2292c-0.4859-0.2907-1.0583-0.6353-1.6201-0.9875-1.4705-0.9507-3.2027-2.0798-4.901-3.2456-0.514-0.352-1.0257-0.7232-1.5482-1.1042l-0.044-0.0318c-0.7763-0.5637-1.5789-1.1466-2.4151-1.6714-1.3342-0.8364-2.7066-1.5509-4.079-2.1236-1.493-0.6233-3.1024-1.245-4.7558-1.572-1.5505-0.3066-3.1316-0.4068-4.6181-0.4832-1.2448-0.0781-2.2011-0.1794-3.1008-0.3287-0.9262-0.154-1.9131-0.3878-3.1058-0.7357-0.4133-0.1414-0.8254-0.2865-1.2368-0.4325l-0.0598-0.021-0.0342-0.0121c-0.691-0.2435-1.4054-0.4953-2.116-0.7173l-0.1793-0.0563c-0.4877-0.1538-1.0405-0.3281-1.5897-0.4384-0.5678-0.1152-1.1432-0.2084-1.759-0.2849-1.3973-0.1784-2.797-0.2757-4.1603-0.2892-1.2689-0.0128-2.5567 0.0981-3.6643 0.203-0.2938 0.0284-0.5944 0.0636-0.8934 0.1047z"/>
		<path class="st4" d="m101.92 16.584c-0.3669 0.0504-0.7393 0.1228-1.1068 0.2151-0.1491 0.0377-0.2987 0.0781-0.4488 0.122-0.297 6e-3 -0.5926 0.0289-0.8781 0.0682-0.7005 0.0963-1.3246 0.2923-1.855 0.5827-1.034 0.5637-1.8701 1.5236-2.483 2.2969-0.2023 0.2567-0.3467 0.5577-0.4741 0.8232l-0.0281 0.0591c-0.1266 0.2579-0.2563 0.5394-0.3964 0.8605-0.3108 0.7043-0.4505 1.4533-0.5669 2.1602-0.105 0.6364-0.1517 1.3592-0.1428 2.2095 0.0076 0.5399 0.0462 1.0448 0.1149 1.5007 0.0592 0.3863 0.2019 0.7651 0.34 1.1314l0.0671 0.1802c0.153 0.4147 0.4131 0.7935 0.6664 1.1459 0.1752 0.2446 0.3453 0.4598 0.5198 0.658 0.253 0.2919 0.5502 0.5415 0.8376 0.7829l0.1681 0.1419c0.5579 0.4731 1.2549 0.7763 1.8644 1.0233 0.6253 0.2537 1.3038 0.3698 2.0019 0.4758 0.6109 0.0932 1.2852 0.0949 2.0615 0.0054l0.056-0.0068 0.0559-0.0077c0.7317-0.1006 1.4068-0.3478 1.9132-0.5519 0.5087-0.2041 0.968-0.5334 1.4122-0.8518l0.2349-0.1688c1.0823-0.7658 2.0408-1.8566 2.8487-3.242 0.1099-0.1886 0.2113-0.3984 0.2928-0.567l0.0161-0.0333 0.0369-0.0766 0.0154-0.0323c0.1573-0.324 0.3531-0.7273 0.4918-1.1255 0.2056-0.5812 0.3495-1.2264 0.4529-2.0306 0.1748-1.3415-0.0918-2.7843-0.7509-4.0624-0.2401-0.469-0.5594-0.913-0.9233-1.2839-0.1137-0.1807-0.2358-0.3537-0.3721-0.545-0.5675-0.8033-1.5186-1.3194-2.9077-1.5779-0.0804-0.0378-0.1691-0.0724-0.2629-0.1025-0.6316-0.203-1.3004-0.2938-1.9342-0.2627-0.3237 0.0159-0.6391 0.0448-0.9374 0.0858z"/>
		<path class="st4" d="m61.803 31.355c-0.3896 0.0536-0.7373 0.1237-1.063 0.2143-0.7225 0.2003-1.357 0.4553-1.8859 0.7577-0.3584 0.2035-0.7136 0.4365-1.0557 0.6926-0.307 0.2289-0.5553 0.5309-0.7954 0.8229l-0.0773 0.093c-0.1284 0.1575-0.2482 0.341-0.3883 0.5951-0.2192 0.4011-0.386 0.7633-0.5099 1.1073-0.1074 0.2978-0.181 0.6346-0.2186 1.0012-0.0734 0.1667-0.13 0.3356-0.1729 0.5157-0.0734 0.2928-0.1189 0.6049-0.1504 0.8441-0.0512 0.3727-0.0041 0.7542 0.0414 1.1232l0.0111 0.0864c0.0372 0.2892 0.1254 0.5761 0.2033 0.8292l0.0105 0.0365c0.1291 0.4203 0.2819 0.8396 0.4542 1.2464 0.1094 0.2617 0.2265 0.4978 0.3579 0.7216 0.2587 0.4437 0.5825 0.9491 1.0224 1.3332 0.3423 0.2991 0.6532 0.5427 1.0581 0.7591 0.3755 0.2014 0.7221 0.3551 1.0597 0.47 0.2416 0.0819 0.5081 0.1601 0.8148 0.2389 0.4074 0.1051 0.8333 0.1671 1.2328 0.2184 0.5604 0.0733 1.1027 0.0261 1.5592-0.0298 0.2249-0.0309 0.452-0.1175 0.6179-0.1807l0.043-0.0156c0.0517-0.0187 0.0929-0.0337 0.1328-0.0473 0.1551-0.0567 0.305-0.1144 0.4557-0.1782 0.348-0.1479 0.6659-0.3138 0.9719-0.507 0.4035-0.2536 0.7527-0.5157 1.0677-0.8013 0.4379-0.3952 0.8046-0.875 1.0751-1.2488 0.4321-0.5988 0.8249-1.3167 1.201-2.1947 0.2247-0.52 0.3503-1.1519 0.3838-1.9318 0.0278-0.6639-0.0517-1.3664-0.1155-1.9308-0.1174-1.0359-0.5158-1.9158-1.1519-2.5446-0.6049-0.5958-1.1221-1.0131-1.6275-1.3136-0.3716-0.2191-0.766-0.412-1.1721-0.5734-0.3008-0.1223-0.6284-0.1751-0.9453-0.2262-0.0924-0.014-0.1745-0.0278-0.2556-0.0416-0.5312-0.0942-1.0707-0.0563-1.6228-0.0054-0.1907 0.0176-0.3792 0.0383-0.5662 0.064z"/>
		<path class="st4" d="m29.17 75.16c-0.5664 0.0778-1.1423 0.2461-1.7119 0.5001-0.4894 0.2164-0.9539 0.5422-1.3081 0.9172-0.1458 0.1563-0.2885 0.3225-0.4169 0.4729l-0.0372 0.043-0.1398 0.1624c-0.2431 0.2826-0.3978 0.6294-0.5475 0.9647l-0.0626 0.1428c-0.1157 0.2527-0.2023 0.5418-0.2808 0.9373-0.0285 0.0603-0.0578 0.123-0.0869 0.1873-0.1342 0.2918-0.2285 0.6022-0.3058 1.0062-0.1443 0.7557-0.1916 1.4223-0.1488 2.0976 0.0352 0.5382 0.0818 1.0651 0.263 1.5927l0.0804 0.2338 0.0095 0.0278c0.1273 0.3727 0.2715 0.7952 0.4547 1.1723 0.215 0.4438 0.5649 0.8519 0.8094 1.1202 0.3342 0.3701 0.7105 0.6863 1.1183 0.9397 0.375 0.2326 0.8206 0.4304 1.3243 0.588 0.5542 0.1768 1.1717 0.2368 1.6478 0.2693 0.2813 0.0162 0.5709 0.0043 0.861-0.0356 0.6255-0.086 1.2843-0.3036 1.9054-0.6293 0.3637-0.191 0.7017-0.4258 1.0285-0.6527l0.1786-0.1246c0.7722-0.5341 1.4576-1.3486 1.9301-2.2935 0.1649-0.3313 0.3471-0.6974 0.4807-1.0817 0.0459-0.1282 0.0805-0.2643 0.111-0.3844l0.0341-0.134c0.0987-0.3699 0.1777-0.7831 0.2347-1.2281 0.1204-0.935 0.0675-1.7799-0.1573-2.511-0.2674-0.8662-0.647-1.5565-1.1602-2.1102-0.2897-0.3136-0.6735-0.6342-1.1408-0.9529-0.5102-0.3468-1.1212-0.6393-1.8681-0.8942-0.5979-0.2061-1.2794-0.3352-2.0256-0.3837-0.3492-0.023-0.7103-0.0093-1.0732 0.0406z"/>
		<path class="st4" d="m67.19 124.19c-0.691 0.095-1.3557 0.306-1.9756 0.6269-0.6488 0.3361-1.2224 0.8542-1.7537 1.5838-0.2831 0.3904-0.4691 0.8466-0.649 1.2879l-0.0123 0.0301c-0.2237 0.5415-0.3767 1.1375-0.4548 1.7715l-0.0156 0.0553c-0.1117 0.4304-0.1679 0.8932-0.1626 1.3384 0.0081 0.5068 0.053 0.9113 0.1414 1.2732 0.0858 0.3457 0.2209 0.6694 0.329 0.9128 0.1451 0.3287 0.3712 0.6329 0.5706 0.9012l0.0328 0.0446c0.0911 0.1229 0.1831 0.2405 0.2811 0.3572 0.2997 0.3584 0.6873 0.6964 1.2198 1.0636 1.0362 0.7115 2.223 1.063 3.4322 1.0166 0.2475-0.0112 0.4783-0.0313 0.6858-0.0599 0.6396-0.0879 1.2384-0.2627 1.8305-0.5345 0.6799-0.3107 1.1454-0.8885 1.5957-1.4474l0.0642-0.0786c0.2505-0.3095 0.4126-0.682 0.5694-1.0422l0.0522-0.1195c0.1467-0.3334 0.2659-0.707 0.3447-1.0805 0.1411-0.663 0.2982-1.4363 0.3763-2.2224 0.0529-0.513 0.0319-1.0413-0.0624-1.5704-0.0768-0.4268-0.2556-0.8398-0.4202-1.1875-0.1601-0.3372-0.3826-0.6765-0.7213-1.1003-0.6653-0.8334-1.7013-1.2647-2.627-1.5766-0.8404-0.2839-1.7641-0.368-2.6712-0.2433z"/>
		<path class="st4" d="m120.5 123.15l-0.0153 0.0021c-0.1408 0.0193-0.3786 0.0974-0.6875 0.2256-0.1142 0.0458-0.222 0.0993-0.3392 0.1683-0.2124 0.1239-0.405 0.2514-0.5723 0.3788-0.391 0.1426-0.7115 0.3566-0.9995 0.5666-0.2381 0.1732-0.4499 0.3665-0.6475 0.591-0.2614 0.3009-0.531 0.6114-0.7274 1.0133-0.1227 0.2496-0.252 0.5173-0.3642 0.8062-0.1025 0.2595-0.15 0.5712-0.192 0.8463l-8e-3 0.0584c-0.0834 0.5411-0.047 1.1448 0.1055 1.7456 0.5094 1.9991 2.3097 3.522 4.1877 3.5422 0.2203 0.0018 0.4451-0.0129 0.6684-0.0435 0.587-0.0807 1.1844-0.2729 1.7277-0.5558 0.6574-0.3409 1.2448-0.8629 1.7959-1.5956 0.2637-0.3538 0.4354-0.7719 0.6015-1.1762l0.0502-0.1241c0.0953-0.2325 0.1637-0.4684 0.2235-0.6887 0.109-0.3958 0.1831-0.8455 0.2144-1.3005 0.028-0.4665-0.0287-0.9684-0.1598-1.4131-0.0803-0.2679-0.1639-0.4891-0.263-0.6961-0.089-0.1864-0.212-0.3597-0.3309-0.5274l-0.0367-0.0508-0.028-0.0409-0.0836-0.1187c-0.1804-0.2636-0.4272-0.4711-0.6659-0.6718l-0.1386-0.118c-0.2563-0.2209-0.5212-0.3448-0.8279-0.4882l-0.1059-0.0492c-0.2026-0.0954-0.4023-0.1644-0.6104-0.2111-0.2056-0.0485-0.4508-0.091-0.7288-0.1266-0.2796-0.0382-0.5634-0.0045-0.8379 0.0281-0.0771 0.0097-0.1407 0.0176-0.2045 0.0238z"/>
		<path class="st4" d="m88.687 53.3c-0.1341 0.0184-0.2842 0.0467-0.4724 0.0891-0.6385 0.1525-1.1548 0.5038-1.5887 0.8212-0.552 0.4029-1.0595 0.9474-1.4676 1.5746-0.2466 0.3811-0.4422 0.8408-0.5508 1.2943-0.2234 0.9274-0.2023 1.9027 0.0594 2.7463 0.0245 0.0776 0.0498 0.1552 0.0751 0.2327 0.0495 0.5484 0.212 1.1163 0.4698 1.6417 0.2637 0.5382 0.6681 1.0267 1.2017 1.4518 0.3172 0.2527 0.6953 0.4211 1.0566 0.5654 0.315 0.1269 0.6931 0.1776 0.9968 0.2183l0.079 0.0098c0.3566 0.0475 0.7558 0.0048 1.1342-0.0429l0.0516-0.0071c0.6765-0.093 1.3593-0.3113 2.0294-0.649 0.6398-0.3208 1.2255-0.9071 1.7906-1.7923 0.3844-0.6051 0.6451-1.2244 0.7748-1.8407 0.0876-0.4165 0.165-0.8642 0.138-1.3169-0.0213-0.3476-0.047-0.5978-0.0857-0.8366-0.0392-0.2354-0.1562-0.5394-0.2336-0.7405l-0.02-0.0569c-0.0741-0.1928-0.1651-0.3663-0.2525-0.5251-0.1666-0.3058-0.3864-0.617-0.6917-0.9793-0.6204-0.7408-1.4591-1.1671-2.2729-1.5174-0.4001-0.1734-0.8213-0.2557-1.2909-0.3382-0.2746-0.0486-0.5876-0.0494-0.9302-0.0023z"/>
		<path class="st1" d="m4.7354 91.334c-0.5228 0.1098-0.9861 0.4261-1.2781 0.8731-0.3062 0.4688-0.3688 0.979-0.2865 1.5211 0.1729 1.1451 0.3849 2.2978 0.6645 3.4222 0.1726 0.6917 0.3985 1.3752 0.661 2.0365 0.3031 0.7626 0.8027 1.3869 1.467 1.874 0.2282 0.1677 0.4648 0.3214 0.708 0.4664 1.1168 0.6679 2.3126 1.2086 3.5032 1.7302 1.0539 0.4619 2.1319 0.8413 3.2426 1.1394 1.1875 0.3177 2.3835 0.6024 3.5821 0.8755 1.3145 0.3003 2.6531 0.4877 3.9926 0.632 1.106 0.1194 2.2231 0.1814 3.3351 0.2009 1.2158 0.0216 2.4202 0.0103 3.6352-0.087 1.0726-0.0854 2.1282-0.2452 3.1863-0.4303 0.5538-0.0968 1.1048-0.1959 1.655-0.3068 1.0802-0.2192 1.7898-1.321 1.5655-2.3944-0.2274-1.0833-1.314-1.783-2.3942-1.5646-1.4883 0.3017-2.9903 0.5686-4.5033 0.7089-1.5846 0.0971-3.1677 0.0374-4.7522-0.0398-1.188-0.0584-2.3687-0.2139-3.5447-0.3862-1.5532-0.308-3.0918-0.6778-4.6219-1.0873-1.4859-0.3988-2.8904-0.984-4.2817-1.63-0.6841-0.3325-1.3827-0.682-1.9925-1.1376-0.0852-0.168-0.1552-0.3429-0.2211-0.5201-0.445-1.4046-0.7088-2.8771-0.9285-4.3314-0.1579-1.046-1.266-1.7241-2.2673-1.5865-0.0423 0.0058-0.0842 0.013-0.1261 0.0218z"/>
		<path class="st1" d="m4.282 96.878c-1.2035 0.7758-2.4166 1.5391-3.5975 2.3479-0.1182 0.137-0.2365 0.2739-0.3547 0.4109-0.1985 0.3057-0.3075 0.6413-0.3273 1.0052-0.0263 0.5234 0.156 1.0466 0.5031 1.4394 0.3583 0.4058 0.8753 0.6546 1.416 0.6819 0.1714-0.0141 0.3437-0.0274 0.5151-0.0406 0.3477-0.0745 0.6545-0.2276 0.922-0.461 0.9048-0.5951 1.819-1.1776 2.7295-1.7642 0.1452-0.0976 0.2894-0.1958 0.4346-0.2934 0.2773-0.2467 0.473-0.5468 0.5883-0.8997 0.1599-0.4987 0.1175-1.0515-0.1167-1.5201-0.2416-0.484-0.6765-0.8578-1.1923-1.023-0.2753-0.0883-0.6228-0.1256-0.9467-0.0811-0.2096 0.0288-0.4094 0.092-0.5734 0.1978z"/>
		<path class="st5" d="m82.076 99.239c-0.6252 0.1481-1.2894 0.4273-1.9214 0.8081-0.2874 0.1732-0.5517 0.3948-0.8067 0.6092l-0.1052 0.0877c-0.2513 0.2096-0.4889 0.4568-0.7277 0.7569-0.2292 0.2893-0.4507 0.6094-0.6579 0.9516-0.1847 0.3055-0.313 0.6516-0.4381 1.0084-0.2723 0.7779-0.3487 1.5703-0.3847 2.1735-0.0267 0.4518 7e-4 0.9265 0.0838 1.4935 0.0962 0.6496 0.2163 1.1469 0.3882 1.6137 0.1356 0.365 0.3078 0.7214 0.4742 1.0666l0.1074 0.2231c0.1727 0.359 0.3976 0.741 0.6516 1.1026 0.5827 0.8336 1.2719 1.6086 2.1059 2.3706 0.42 0.3836 0.8926 0.7298 1.3411 1.0457 0.2674 0.189 0.5487 0.3857 0.8381 0.5718 7e-4 -1e-3 0.0014-2e-3 0.0022-0.0029l8e-4 -1e-4c-0.0048-0.0037-0.0088-0.0075-0.0127-0.0112 0.5259-0.6697 1.1056-1.2623 1.7248-1.762 0.7087-0.5819 1.3095-1.0524 2.0515-1.3794l0.1219-0.0539c0.4006-0.1774 0.8149-0.3611 1.2331-0.4919 0.8422-0.2632 1.6967-0.4557 2.5393-0.5715 0.5846-0.0804 1.1896-0.1256 1.7984-0.1361 0.5284-0.0063 1.0861 0.0248 1.7566 0.099 0.7932 0.0832 1.4751 0.2213 2.0865 0.4234 0.6082 0.1983 1.0822 0.3788 1.4892 0.5685 0.2977-0.1677 0.6114-0.3306 0.9589-0.4991 0.6476-0.3183 1.2456-0.5704 1.8281-0.7729 0.521-0.1793 1.0845-0.3628 1.6736-0.4852 0.4202-0.0854 0.7872-0.1496 1.123-0.1958 0.7293-0.1002 1.3846-0.13 2.0019-0.0916 1.7951 0.1161 3.4459 0.5115 4.9076 1.1742 0.7222 0.3248 1.3533 0.7458 2.0782 1.278 0.6044 0.4461 1.071 0.831 1.4589 1.207 0.0011 0.0016 0.0029 0.0022 4e-3 0.0038 0.0187 0.0172 0.0376 0.0353 0.0565 0.0534 7e-4 -9e-4 0.0015-1e-3 0.0023-2e-3l0.0017-3e-4 0.0036 0.0013 1e-4 8e-4c0.2722-0.2081 0.5378-0.4265 0.7974-0.6389l0.1463-0.121c0.2688-0.2205 0.6173-0.5132 0.939-0.8316 0.3596-0.3563 0.6927-0.6986 1.0173-1.0458 0.2811-0.3007 0.5398-0.632 0.7898-0.9516l0.0749-0.0948c0.6798-0.8675 1.2315-1.858 1.6381-2.9448 0.1298-0.3472 0.2965-0.8088 0.4285-1.2968 0.1119-0.4153 0.1775-0.8467 0.241-1.2632l4e-3 -0.0273c0.1143-0.7484 0.1348-1.452 0.0621-2.1497-0.0798-0.7622-0.3063-1.5448-0.6749-2.326-0.3102-0.6573-0.7614-1.2245-1.1619-1.6918-0.2301-0.2692-0.5157-0.5351-0.8466-0.7913-0.8365-0.6478-1.8641-1.1065-2.9709-1.3258-0.4276-0.0853-0.8429-0.1441-1.2388-0.1782l0.0141 0.0414 0.029 0.0856c0.2781 0.8566 0.3299 1.8666 0.1421 2.7699-0.0843 0.415-0.2349 0.7874-0.3801 1.1479-0.1776 0.4451-0.4339 0.832-0.7217 1.0897l-0.1394 0.1269c-0.1875 0.1723-0.4001 0.3687-0.6362 0.5012-0.2343 0.1391-0.4851 0.2589-0.7449 0.3567-0.3294 0.1427-0.7184 0.2479-1.1245 0.3037-0.126 0.0174-0.252 0.0295-0.375 0.037-0.4791 0.027-0.9293-0.0188-1.3025-0.1313l-0.0808-0.0234c-0.3542-0.1064-0.721-0.2163-1.022-0.424-0.0658-0.0462-0.1342-0.0919-0.2025-0.1377-0.2783-0.1867-0.566-0.3799-0.7886-0.6321-0.2935-0.3294-0.6263-0.7181-0.8684-1.1563-0.2121-0.3829-0.3885-0.7439-0.5381-1.1052-0.1182-0.2827-0.2224-0.5897-0.3196-0.939-0.4743 0.1539-0.9515 0.3048-1.4305 0.4486 3e-4 0.0017 5e-4 0.0034 7e-4 0.0051l-0.0348 0.0099 0.0375-0.0094c0.0349 0.3546 0.0499 0.6956 0.0454 1.0135-0.0087 0.5951-0.0676 1.2264-0.1787 1.9295-0.0612 0.3886-0.1471 0.8487-0.3164 1.3159-0.2154 0.6028-0.47 1.2335-0.9873 1.7347-0.242 0.2333-0.4916 0.4745-0.778 0.6423-0.2372 0.149-0.4917 0.2727-0.7562 0.3677l-0.0933 0.0362-0.072 0.0279c-0.0733 0.0127-0.1471 0.028-0.2225 0.0435-0.13 0.0265-0.2591 0.0529-0.3902 0.071-0.1295 0.0178-0.2423 0.0246-0.3443 0.0223-0.2986-9e-3 -0.6066-0.0356-0.8908-0.0775-0.3764-0.0543-0.7714-0.206-1.1411-0.4379-0.4278-0.2713-0.8376-0.5434-1.1554-0.8928-0.4161-0.4556-0.7342-0.8946-0.9724-1.342l-0.0139-0.0257c-0.2133-0.3974-0.4327-0.8085-0.5268-1.255-0.0269-0.1326-0.0537-0.2651-0.0813-0.3966-0.1054-0.5156-0.1865-0.9493-0.2403-1.3901-0.0134-0.1102-0.0234-0.2209-0.0281-0.3366-9e-4 1e-4 -0.0018-6e-4 -0.0027-5e-4l-1e-4 -9e-4c-0.2797-0.0219-0.5578-0.0448-0.8325-0.0674-0.2362-0.0192-0.4725-0.0385-0.7078-0.057-7e-4 1e-3 -6e-4 0.0018-5e-4 0.0027-8e-4 1e-4 -9e-4 -8e-4 -0.0018-6e-4 1e-3 7e-4 1e-3 7e-4 0.0019 0.0014-0.026 0.3432-0.0669 0.798-0.1493 1.2644-0.1155 0.671-0.3012 1.5335-0.7195 2.247-0.2439 0.4137-0.4947 0.7464-0.7646 1.0154-0.584 0.5803-1.3315 0.9365-2.2223 1.059-0.0423 0.0058-0.0847 0.0107-0.1305 0.0162-1.1712 0.1274-2.484-0.4179-3.4264-1.4227-0.9341-0.9948-1.4447-2.2133-1.476-3.5253-0.0045-0.2648 5e-4 -0.4982 0.0205-0.7165-0.3479 0.059-0.6977 0.1295-1.0425 0.2114z"/>
		<path class="st6" d="m88.145 111.42c-0.4183 0.1299-0.8318 0.3135-1.2324 0.491l-0.1219 0.0538c-0.7419 0.3279-1.3435 0.7985-2.0524 1.3795-0.6183 0.4996-1.1988 1.0924-1.7238 1.7628 0.0839 0.0772 0.1649 0.1273 0.2299 0.1675l0.1429 0.0864c0.7081 0.4293 1.4407 0.8734 2.2248 1.1974l0.086 0.0364 0.4048 0.1668 0.0795 0.0322 0.105 0.0433 0.3633 0.1466 0.0966 0.0384c0.5526 0.2115 1.0609 0.3942 1.5395 0.5514v-2e-4l-0.0018-6e-4c0.0288-0.0911 0.0603-0.1816 0.0938-0.2707l0.0709-0.1925c0.2009-0.5448 0.409-1.107 0.7554-1.5839 0.0326-0.045 0.0667-0.0919 0.1078-0.1501 0.138-0.194 0.2948-0.4138 0.4724-0.5709 0.1713-0.1581 0.3543-0.3065 0.5445-0.4404 0.2667-0.2048 0.5595-0.3192 0.8713-0.4405 0.2274-0.089 0.4562-0.1489 0.6998-0.1824 0.3494-0.048 0.7364-0.0426 1.185 0.0164 0.8926 0.116 1.537 0.8532 1.8416 1.282 0.1697 0.237 0.2739 0.5123 0.3659 0.7557 0.0837 0.2195 0.1127 0.456 0.1411 0.6874 7e-3 0.0568 0.0138 0.1127 0.0215 0.1686 0.0903 0.6573 0.0858 1.3389-0.015 2.0286 0.1801 0.0063 0.3688 0.0122 0.5661 0.0178l0.2817 0.0044c0.3053 8e-3 0.6228 0.0101 0.9976 0.0085 0.4496-0.0023 0.9121-0.0176 1.3857-0.0466l-0.0128-0.112-0.0024-0.0238c-0.0186-0.1664-0.038-0.3387-0.0387-0.5067 0.0017-0.4459 0.0247-1.1059 0.2154-1.7001 0.126-0.3941 0.2906-0.852 0.5569-1.2532 0.3544-0.5323 0.6971-0.8924 1.1455-1.2049 0.2674-0.1867 0.6071-0.3429 0.9572-0.4419 0.1687-0.0464 0.3478-0.0849 0.5035-0.1063 0.088-0.0121 0.1723-0.0194 0.2505-0.0215 0.2129-0.012 0.4276 0.0067 0.6387 0.0562 0.5785 0.0695 1.216 0.387 1.7037 0.8492 0.7814 0.7434 1.2338 1.8078 1.3424 3.1686 0.7722-0.2268 1.5649-0.4677 2.354-0.7848 0.5873-0.2359 1.2873-0.5244 2.0197-0.8776 0.3885-0.1896 0.6815-0.3411 0.9199-0.4756 0.8712-0.4784 1.6944-1.0363 2.3142-1.469 0.0723-0.0504 0.1445-0.1026 0.2156-0.1554l0.1165-0.0868 0.0429-0.0334c-0.4012-0.3974-0.8869-0.8013-1.5286-1.2742-0.7248-0.5322-1.3551-0.9533-2.0774-1.2789-1.4617-0.6628-3.1132-1.0572-4.9083-1.1733-0.6173-0.0384-1.2718-0.0088-2.001 0.0915-0.3368 0.0463-0.7038 0.1106-1.1239 0.1959-0.5884 0.1214-1.1519 0.3049-1.6736 0.4853-0.5818 0.2015-1.1797 0.4544-1.8274 0.7718-0.3475 0.1685-0.6612 0.3315-0.9589 0.4991-0.4069-0.1889-0.8809-0.3694-1.4892-0.5684-0.6113-0.2013-1.2941-0.3402-2.0873-0.4233-0.6704-0.0734-1.2282-0.1053-1.7556-0.0983-0.609 0.0096-1.2147 0.0558-1.7984 0.1361-0.8435 0.1159-1.698 0.3084-2.5402 0.5716z"/>
		<path class="st7" d="m83.57 98.959l-0.2224 0.0314-0.2291 0.0324c-0.0196 0.2193-0.0256 0.4545-0.0203 0.7211 0.0312 1.3118 0.5414 2.5311 1.4756 3.5259 0.9427 1.0044 2.2556 1.5493 3.4263 1.4219 0.046-0.0054 0.0883-0.0104 0.1306-0.0162 0.8905-0.1224 1.6381-0.4785 2.222-1.0584 0.2704-0.2696 0.5206-0.6018 0.7649-1.0159 0.418-0.7134 0.6043-1.5755 0.7198-2.2469 0.0819-0.4665 0.1229-0.9209 0.1495-1.2646-0.0095-0.0041-0.0229-0.0052-0.0315-0.0059-0.3663-0.028-0.7225-0.0586-1.0794-0.0893l-0.0518-0.0044-0.1736-0.015c-0.452-0.0396-0.9037-0.0774-1.356-0.1135-2.0047-0.1517-3.7774-0.1324-5.4195 0.0589-0.1097 0.0133-0.2067 0.025-0.3051 0.0385z"/>
		<path class="st7" d="m93.531 99.208l-8e-4 2e-4c0.0044 0.117 0.0147 0.2294 0.0283 0.3413 0.0537 0.4407 0.1349 0.8745 0.2403 1.3903 0.0276 0.1315 0.0544 0.264 0.0812 0.3965 0.0936 0.4464 0.3135 0.8575 0.5261 1.255l0.0139 0.0256c0.239 0.4475 0.5571 0.8867 0.9727 1.3425 0.3179 0.3487 0.7281 0.6211 1.1558 0.8923 0.3695 0.2324 0.7641 0.384 1.1411 0.4384 0.2839 0.0418 0.5917 0.0684 0.8901 0.0768 0.1022 0.0027 0.215-0.0046 0.3447-0.0224 0.1312-0.018 0.2604-0.0443 0.3905-0.0708 0.0752-0.0157 0.149-0.031 0.2222-0.0436l0.0717-0.0272 0.0933-0.0361c0.2646-0.095 0.5192-0.2188 0.7566-0.3679 0.2867-0.168 0.5362-0.4092 0.7775-0.6424 0.5181-0.5011 0.7721-1.1318 0.9879-1.7348 0.169-0.4673 0.2549-0.9276 0.3166-1.3162 0.111-0.703 0.1692-1.3339 0.1779-1.9289 5e-3 -0.3179-0.0103-0.6589-0.0454-1.0138l-0.1222 0.0326c-0.2047 0.0591-0.4074 0.1177-0.6104 0.1745-1.0899 0.3072-2.3143 0.5801-3.7433 0.8344-0.1662 0.0264-0.3326 0.051-0.5001 0.074-0.071 0.0097-0.1429 0.0196-0.2149 0.0287l-0.0342 4e-4 -0.0352 0.0014c-0.862 0.0198-1.732 0.012-2.6598-0.0239-0.4172-0.0173-0.8053-0.0417-1.2216-0.0769h-5e-4z"/>
		<path class="st7" d="m110.49 95.891c-0.2793 0.0384-0.5536 0.0836-0.8152 0.1345-1.011 0.1902-1.9915 0.4951-2.7329 0.7395-0.2805 0.0912-0.5607 0.1848-0.8425 0.2796l-0.262 0.0878-0.0708 0.0243c-0.5267 0.177-1.0693 0.3592-1.6222 0.5334-0.0394 0.0148-0.0394 0.0148-0.0391 0.017 0.097 0.3499 0.2013 0.657 0.3188 0.9394 0.1501 0.3613 0.3262 0.7229 0.5383 1.1055 0.2422 0.4383 0.5754 0.8269 0.8687 1.1567 0.2228 0.2517 0.5105 0.4448 0.7888 0.6316 0.0684 0.0457 0.1367 0.0915 0.2025 0.1376 0.3006 0.2083 0.6672 0.318 1.0217 0.4242l0.0809 0.0237c0.3733 0.1125 0.8236 0.1577 1.3022 0.1306 0.1232-0.0075 0.2491-0.0196 0.3753-0.0369 0.4064-0.0559 0.7952-0.1607 1.1243-0.303 0.2603-0.0981 0.511-0.2182 0.7451-0.3568 0.2364-0.1331 0.449-0.3288 0.6366-0.5015l0.1394-0.1269c0.2877-0.2576 0.5439-0.6445 0.7215-1.0895 0.1452-0.3605 0.2953-0.7333 0.3802-1.1482 0.1876-0.9035 0.1355-1.9132-0.1429-2.7701l-0.0289-0.0856-0.0146-0.0429c-0.155-0.0115-0.3045-0.0202-0.4509-0.0251-0.7182-0.0254-1.4451 0.0142-2.2223 0.1211z"/>
		<path class="st7" d="m91.201 113.92c-0.3117 0.1221-0.6045 0.2365-0.8712 0.4413-0.1902 0.1339-0.3732 0.2823-0.5445 0.4404-0.1777 0.1563-0.3344 0.3769-0.4724 0.5709-0.0411 0.0582-0.0752 0.1051-0.1078 0.1501-0.3465 0.4761-0.5545 1.0391-0.7554 1.5839l-0.0709 0.1925c-0.0335 0.0891-0.065 0.1796-0.0938 0.2707l0.0018 6e-4 0.0012-0.0036 8e-4 -1e-4 1e-3 7e-4 0.0379 0.012c0.4822 0.1596 0.9296 0.2911 1.3692 0.404l0.0229 0.0037c0.5096 0.1265 1.0023 0.2242 1.5063 0.2972 0.2163 0.0314 0.4414 0.0634 0.6724 0.0946l0.0716 0.0065 0.0338 0.0079 0.0244 0.0029-0.0184-0.0095-0.0336-0.0125c0.0045 7e-4 9e-3 0.0014 0.0135 0.0021l-0.0086-0.0045c0.8647 0.1328 1.6426 0.2172 2.3763 0.256 0.2803 0.0165 0.5807 0.0302 0.9198 0.0469 0.0534 2e-3 0.1075 4e-3 0.1624 6e-3 0.1017-0.6898 0.1069-1.3732 0.0163-2.0322-0.0077-0.0559-0.0145-0.1118-0.0215-0.1686-0.0284-0.2314-0.0574-0.4679-0.1411-0.6874-0.092-0.2434-0.1962-0.5187-0.3659-0.7557-0.3047-0.4296-0.949-1.166-1.8418-1.2829-0.4484-0.0581-0.8354-0.0635-1.1848-0.0155-0.2436 0.0335-0.4724 0.0934-0.6999 0.1816z"/>
		<path class="st7" d="m101.49 113.42c-0.3502 0.0982-0.6898 0.2552-0.9572 0.4419-0.4485 0.3117-0.7911 0.6726-1.1455 1.2049-0.2663 0.4012-0.431 0.8583-0.5569 1.2532-0.1907 0.5942-0.2137 1.2542-0.2155 1.6993 7e-4 0.168 0.0201 0.3403 0.0388 0.5075l0.0024 0.0238 0.0129 0.1129c0.0015-1e-4 0.0029-2e-4 0.0044-2e-4l1e-4 -0.0047c0.2131-0.0112 0.4343-0.0261 0.6628-0.0446 0.1978-0.016 0.4021-0.0346 0.6095-0.0562 0.3057-0.0334 0.6287-0.0727 0.9883-0.1221 0.6988-0.0961 1.4064-0.2158 2.1175-0.3601 0.0614-0.0116 0.1204-0.0236 0.1798-0.0323 0.014-3e-3 0.0281-6e-3 0.0422-9e-3l-0.0207-0.0085-0.0353-0.0092 0.0175 0.0019-0.0109-0.0045 0.0279 0.0021 0.0364-0.0041c0.2293-0.0315 0.4977-0.0857 0.9266-0.1886 0.4573-0.1034 0.9274-0.2267 1.4378-0.3761l0.0241-0.0068 0.251-0.0741c2e-4 -1e-4 7e-4 4e-4 0.0012 0.0012-0.1084-1.3613-0.561-2.4272-1.3428-3.17-0.4877-0.4622-1.1254-0.7805-1.7038-0.8501-0.211-0.0486-0.4257-0.0673-0.6386-0.0553-0.0782 0.0021-0.1625 0.0094-0.2505 0.0215-0.1557 0.0214-0.3348 0.0599-0.5035 0.1063z"/>
		<path class="st1" d="m66.058 78.36c-0.4645 0.1642-0.9063 0.366-1.3454 0.5869-0.5371 0.27-1.0949 0.5711-1.5841 0.9253-0.3814 0.2755-0.7649 0.5544-1.1079 0.878-0.4406 0.4139-0.8695 0.8138-1.2092 1.3153-0.313 0.4634-0.604 0.945-0.8465 1.4499-0.3703 0.7695-0.7057 1.5842-0.9586 2.3991-0.2475 0.7988-0.4342 1.5776-0.4785 2.4129-0.0444 0.8389-0.0096 1.6808 0.0345 2.5187 0.0295 0.5523 0.3777 1.1075 0.8006 1.4431 0.446 0.3545 1.0205 0.519 1.5861 0.4545 0.5656-0.0644 1.0886-0.3545 1.4431-0.8005 0.3725-0.469 0.4849-1.0022 0.4543-1.587-0.0231-0.4373-0.0441-0.8744-0.0512-1.3124 0.0242-0.5101 0.0857-1.0055 0.2015-1.5027 0.1564-0.4896 0.3422-0.9666 0.546-1.4397 0.1741-0.4051 0.3429-0.8102 0.5465-1.2002 0.1798-0.2669 0.3659-0.522 0.5822-0.7612 0.5343-0.468 1.1103-0.8741 1.7222-1.233 0.4723-0.2313 0.9458-0.435 1.4479-0.5909 0.6543-0.1405 1.3185-0.2453 1.9868-0.2706 0.1901 0.0168 0.3772 0.0469 0.564 0.0867 0.4373 0.1477 0.863 0.3358 1.2724 0.5496 0.3138 0.2178 0.6029 0.469 0.8786 0.7338 0.2623 0.3017 0.4925 0.6218 0.7004 0.9647 0.4473 0.8883 0.7901 1.8087 1.0557 2.7685 0.1743 0.8061 0.286 1.623 0.5037 2.4201 0.144 0.5301 0.679 0.9966 1.1651 1.2033 0.5136 0.2199 1.1038 0.2283 1.625 0.0265 0.5383-0.2087 0.9772-0.6343 1.2042-1.1654 0.0496-0.179 0.0999-0.3592 0.1496-0.5382 0.047-0.3386 0.0174-0.6686-0.0891-0.989-0.0833-0.4467-0.1507-0.896-0.2481-1.3409-0.1632-0.7473-0.3513-1.4971-0.6032-2.2198-0.188-0.5422-0.4107-1.081-0.6709-1.5923-0.317-0.6214-0.6377-1.2512-1.0726-1.8011-0.8637-1.0944-1.9303-1.9813-3.1914-2.5775-0.608-0.2876-1.2213-0.5019-1.8743-0.6666-0.6425-0.1635-1.2985-0.1732-1.9601-0.1433-0.4323 0.0191-0.8625 0.0826-1.2897 0.1511-0.3434 0.0546-0.6949 0.1186-1.0406 0.1997-0.2897 0.068-0.5753 0.148-0.849 0.2446z"/>
		<path class="st1" d="m121.22 72.25c-0.7161 0.2877-1.4037 0.6697-2.0517 1.0883-0.2786 0.1795-0.5301 0.419-0.7817 0.6342-0.3914 0.3368-0.7597 0.7001-1.1256 1.0655-0.8054 0.8044-1.3877 1.8378-1.7892 2.9008-0.1378 0.3653-0.2592 0.7248-0.3695 1.0995-0.1294 0.4372-0.2473 0.8754-0.3441 1.3199-0.1037 0.4825-0.144 0.9802-0.1945 1.4708-0.0588 0.5665 0.0513 1.1111 0.3916 1.5774 0.3404 0.4663 0.8652 0.7817 1.4362 0.8638 1.1273 0.161 2.3209-0.6586 2.441-1.8287 0.0653-0.6393 0.1488-1.2656 0.2928-1.89 0.2136-0.6822 0.4658-1.3506 0.7946-1.9855 0.2319-0.3191 0.492-0.6089 0.7655-0.8908 0.2316-0.2074 0.4644-0.4121 0.7065-0.6073 0.219-0.1773 0.448-0.3293 0.686-0.4721 0.5188-0.2551 1.0468-0.4672 1.6002-0.6346 0.4847-0.0928 0.9677-0.1376 1.4613-0.1531 0.4401 0.0288 0.8771 0.0709 1.3093 0.1625 0.3921 0.1231 0.7735 0.262 1.1429 0.4504 0.4004 0.2653 0.7726 0.5577 1.1248 0.8838 0.3856 0.4597 0.7389 0.942 1.0478 1.456 0.2305 0.4808 0.4331 0.9687 0.5876 1.4783 0.0559 0.2886 0.0986 0.5788 0.1538 0.8682 0.1104 0.5782 0.3268 1.0661 0.8004 1.4422 0.446 0.3546 1.0213 0.5188 1.587 0.4544 0.5656-0.0644 1.0885-0.3545 1.4422-0.8004 0.332-0.4183 0.5576-1.0472 0.4545-1.5861-0.0478-0.2515-0.0812-0.5055-0.1272-0.7575-0.0818-0.4522-0.2025-0.8989-0.3346-1.3383-0.2086-0.6936-0.5453-1.3478-0.8926-1.9789-0.6423-1.167-1.5078-2.2292-2.548-3.0634-0.788-0.6324-1.6919-1.1329-2.6502-1.4505-0.5233-0.1737-1.066-0.3306-1.6119-0.4092-0.3531-0.05-0.7099-0.0719-1.0653-0.0924-0.9592-0.0558-1.9147 0.0307-2.8428 0.2484-0.5086 0.1194-1.0088 0.2781-1.4971 0.4744z"/>
		<path class="st1" d="m56.572 85.212c-0.5375 0.2084-0.9771 0.6342-1.2033 1.1651-0.2188 0.5143-0.228 1.1047-0.0262 1.6259 0.196 0.5048 0.6377 1.024 1.1651 1.2033 0.3648 0.1239 0.7312 0.2427 1.0896 0.3831 0.4172 0.1639 0.815 0.3726 1.2365 0.5272 0.538 0.1964 1.0814 0.2363 1.6248 0.0255 0.5384-0.2086 0.9772-0.6341 1.2042-1.1653 0.4419-1.0379-0.035-2.4251-1.1398-2.8289-0.4092-0.15-0.7984-0.3458-1.2012-0.5121-0.3666-0.1516-0.7487-0.2695-1.1238-0.3975-0.4559-0.1553-0.896-0.2184-1.3495-0.1121-0.0915 0.0215-0.1835 0.0499-0.2764 0.0858z"/>
		<path class="st1" d="m57.85 79.275c-0.3546 0.4461-0.519 1.0205-0.4546 1.5862 0.0594 0.52 0.3442 1.148 0.8006 1.4431 0.4124 0.267 0.8101 0.5431 1.1849 0.861 0.3518 0.2999 0.6796 0.6289 1.0576 0.8965 0.4767 0.338 0.995 0.5222 1.5861 0.4546 0.5656-0.0645 1.0886-0.3546 1.4431-0.8006 0.7003-0.8816 0.6138-2.3501-0.346-3.0292-0.378-0.2676-0.706-0.5975-1.0585-0.8963-0.3739-0.3182-0.7719-0.5951-1.1841-0.8613-0.1652-0.0987-0.3308-0.1982-0.4969-0.2967-0.3497-0.1471-0.7126-0.1994-1.0891-0.1578-0.083 0.0094-0.165 0.0238-0.2458 0.0427-0.4696 0.1102-0.8948 0.3772-1.1973 0.7578z"/>
		<path class="st1" d="m63.26 76.865c0.1868 1.1831 0.3084 2.4265 0.688 3.5662 0.3721 1.1153 1.735 1.6391 2.7901 1.2298 0.5384-0.2087 0.9781-0.6345 1.2042-1.1654 0.2281-0.5342 0.207-1.0829 0.0264-1.625-0.01-0.0265-0.0196-0.0531-0.0288-0.0798-0.1608-0.7995-0.2687-1.6117-0.3958-2.4157-0.0906-0.5735-0.3384-1.0755-0.8006-1.4431-0.446-0.3545-1.0205-0.519-1.5859-0.4536-0.0781 0.0089-0.1555 0.0224-0.2315 0.0402-1.0248 0.2404-1.8361 1.2659-1.6661 2.3464zm4.603 1.6545c0.0089 0.0354 0.0177 0.0708 0.0265 0.1062-0.0096-0.0352-0.0184-0.0706-0.0265-0.1062z"/>
		<path class="st1" d="m71.573 74.371c-0.1389 0.1336-0.2778 0.2672-0.4175 0.401-0.2407 0.3052-0.39 0.6498-0.4466 1.0343-0.2109 0.8585-0.4299 1.715-0.6184 2.5775-0.1148 0.5273 0.0826 1.1533 0.3925 1.5772 0.3404 0.4663 0.8643 0.782 1.4353 0.864 0.5534 0.0787 1.1261-0.0631 1.5781-0.3927 0.4933-0.3608 0.7358-0.8534 0.8631-1.435 0.1883-0.8635 0.4072-1.72 0.6184-2.5776 0.1274-0.5171-0.0897-1.1638-0.3916-1.5774-0.3404-0.4662-0.8652-0.7817-1.4361-0.8638-0.2667-0.0381-0.5383-0.0247-0.7987 0.0364-0.2791 0.0655-0.5452 0.1857-0.7785 0.3561z"/>
		<path class="st1" d="m77.5 81.398c-0.2743 0.1709-0.5538 0.3333-0.835 0.4931-0.2405 0.1296-0.4817 0.2582-0.7232 0.3869-0.1633 0.0888-0.3265 0.1785-0.4899 0.2674-0.3188 0.2356-0.5564 0.5345-0.7133 0.8977-0.2188 0.5143-0.2281 1.1046-0.0265 1.625 0.2086 0.5384 0.6342 0.9772 1.1653 1.2041 0.4634 0.1972 1.1601 0.2731 1.6257 0.0254 0.8546-0.4549 1.7167-0.9021 2.5388-1.4158 0.4731-0.2952 0.7871-0.8982 0.864-1.4353 0.0787-0.5534-0.0631-1.1261-0.3925-1.5772-0.3404-0.4662-0.8643-0.7819-1.4362-0.8638-0.2664-0.0379-0.5155-0.0233-0.7541 0.0326-0.2855 0.067-0.5559 0.1933-0.8231 0.3599zm-0.4048 0.2596c-0.0528 0.0289-0.1057 0.0577-0.1586 0.0865 0.0529-0.0289 0.1058-0.0577 0.1586-0.0865z"/>
		<path class="st1" d="m112.07 76.556c-0.4536 1.064 0.0493 2.39 1.1398 2.8289 0.5618 0.2264 1.1193 0.4659 1.6834 0.6861 1.0927 0.4282 2.3573-0.0331 2.8292-1.1389 0.4497-1.0566-0.0453-2.4011-1.1398-2.8289-0.5643-0.2211-1.1218-0.4606-1.6836-0.687-0.4385-0.1764-0.9067-0.2038-1.34-0.1022-0.6433 0.1509-1.2097 0.5864-1.489 1.242z"/>
		<path class="st1" d="m117.91 69.438c-0.4663 0.3403-0.782 0.8642-0.8638 1.4361-0.0027 0.1839-0.0053 0.3679-0.0073 0.5507 0.0435 0.3769 0.177 0.7188 0.3998 1.0265 0.3242 0.5608 0.6185 1.1613 1.0094 1.6794 0.7081 0.9373 2.0536 1.1715 3.0131 0.4704 0.9375-0.6838 1.1796-2.0751 0.4715-3.0125-0.3909-0.518-0.6851-1.1186-1.0102-1.6791-0.2754-0.476-0.9137-0.7891-1.4353-0.864-0.2671-0.038-0.5387-0.0246-0.799 0.0364-0.2789 0.0655-0.5448 0.1857-0.7782 0.3561z"/>
		<path class="st1" d="m125.07 69.021c-0.0614 0.5671-0.1246 1.1347-0.1614 1.7034-0.0384 0.5776 0.0415 1.0976 0.3916 1.5775 0.3404 0.4662 0.8652 0.7817 1.4362 0.8638 0.5525 0.0788 1.1261-0.0632 1.5772-0.3925 0.4368-0.3186 0.827-0.8796 0.8638-1.4362 0.0367-0.5688 0.1002-1.1354 0.1616-1.7026 0.0601-0.5649-0.0536-1.1133-0.3927-1.578-0.3404-0.4663-0.8641-0.7811-1.4359-0.8629-0.2608-0.0374-0.5245-0.0225-0.7772 0.0368-0.8438 0.198-1.567 0.891-1.6632 1.7907z"/>
		<path class="st1" d="m132.43 72.921c-0.513 0.4879-1.0363 0.9642-1.5506 1.4505-0.1389 0.1336-0.2777 0.2671-0.4166 0.4007-0.2407 0.3053-0.3899 0.6498-0.4465 1.0343-0.0787 0.5534 0.0622 1.1264 0.3918 1.5783 0.3402 0.4654 0.865 0.7809 1.436 0.863 0.4954 0.0708 1.1952-0.0317 1.5772-0.3925 0.5145-0.4855 1.0377-0.9617 1.5505-1.4505 0.1389-0.1336 0.278-0.2663 0.4169-0.3999 0.2405-0.3061 0.3897-0.6507 0.4463-1.0352 0.0787-0.5534-0.0623-1.1263-0.3916-1.5774-0.3404-0.4663-0.8652-0.7817-1.4362-0.8638-0.1839-0.0027-0.3676-0.0045-0.5516-0.0071-0.0857 0.0101-0.1697 0.0248-0.2518 0.0441-0.2788 0.0654-0.5368 0.1836-0.7738 0.3555z"/>
		<path class="st6" d="m56.144 100.81c-0.0397 0.0171-0.0794 0.0344-0.119 0.052-0.5153 0.0697-1.0258 0.1711-1.521 0.2898-0.3746 0.0903-0.7458 0.2241-1.0988 0.3778-0.5458 0.2371-1.0859 0.4907-1.5763 0.8296-0.7178 0.4969-1.2966 1.1523-1.7776 1.8736-0.2616 0.3919-0.4181 0.8022-0.5813 1.2453-0.0563 0.1543-0.1074 0.3096-0.1547 0.4669-0.0943 0.3113-0.0931 0.6524-0.1152 0.9744-0.0303 0.4568 0.0528 0.9229 0.1398 1.3678 0.0716 0.3642 0.1847 0.7038 0.3323 1.0438 0.1666 0.384 0.341 0.7497 0.5881 1.0863 0.1801 0.2442 0.3855 0.4711 0.5887 0.6957 0.3194 0.3544 0.742 0.6195 1.1469 0.8681 0.256 0.1571 0.5187 0.2933 0.7987 0.3988 0.6674 0.2522 1.308 0.4477 2.0161 0.5253 0.722 0.0792 1.4161 0.1062 2.1396 0.0705 0.5685-0.0282 1.1355-0.0674 1.6996-0.1466 0.8194-0.1153 1.6846-0.2549 2.4507-0.5827 0.7375-0.316 1.4486-0.6922 2.0956-1.1656 0.5641-0.4111 1.1132-0.8685 1.5208-1.44 0.1879-0.2638 0.3701-0.5181 0.5029-0.8122 0.1189-0.2638 0.2162-0.534 0.3142-0.8061 0.088-0.244 0.1612-0.4824 0.2018-0.7389 0.1377-0.8542 0.043-1.6747-0.148-2.5122-0.0523-0.2298-0.1386-0.4498-0.2304-0.6665-0.1025-0.2437-0.2281-0.5057-0.3535-0.7462-0.191-0.3676-0.4229-0.6495-0.6981-0.9651-0.3257-0.375-0.7473-0.6386-1.1544-0.9162-0.2063-0.1406-0.4403-0.2558-0.6734-0.3462-0.6536-0.2523-1.3014-0.4943-1.9951-0.6049-0.683-0.1095-1.3729-0.1862-2.0645-0.2015-0.247-0.0054-0.4935 0.0101-0.7377 0.0437-0.5297 0.0728-1.0484 0.2304-1.5368 0.4415z"/>
		<path class="st6" d="m137.27 89.912c-0.3344 0.0942-0.6546 0.2546-0.9629 0.4073-0.2062 0.1023-0.4014 0.222-0.5862 0.3559-0.0625 0.0214-0.1247 0.0436-0.1866 0.0667-1.3455 0.5023-2.5232 1.3977-3.3562 2.5674-0.461 0.6469-0.8563 1.3202-1.0227 2.1102-0.085 0.4039-0.1278 0.8261-0.1175 1.2393 0.0097 0.409 0.083 0.817 0.1748 1.2147 0.0978 0.4236 0.3306 0.8441 0.5749 1.2036 0.163 0.2388 0.3702 0.4482 0.5605 0.666 0.1659 0.191 0.3757 0.35 0.5744 0.5037 0.4089 0.3162 0.8659 0.6119 1.3487 0.8007 1.2388 0.4831 2.5399 0.5861 3.8583 0.5953 0.5746 0.0038 1.1512-0.041 1.7228-0.0903 0.7029-0.0596 1.4346-0.1861 2.0976-0.4358 0.3049-0.1152 0.6009-0.2378 0.898-0.3717 0.53-0.2393 1.0404-0.4767 1.4898-0.8505 0.3312-0.2748 0.6457-0.5577 0.9526-0.8585 0.6548-0.6417 1.2171-1.4172 1.568-2.2628 0.1522-0.3666 0.2849-0.7366 0.3325-1.1301 0.0328-0.2761 0.0601-0.516 0.0474-0.7841-0.0135-0.2671-0.0842-0.5306-0.1316-0.7939-0.0712-0.3867-0.2777-0.7471-0.4529-1.0937-0.0722-0.1426-0.1594-0.2875-0.2514-0.4179-0.44-0.6231-0.9417-1.1877-1.5526-1.6433-0.3764-0.2801-0.7404-0.5137-1.1745-0.6867-0.3667-0.147-0.7431-0.2832-1.1307-0.3687-0.4319-0.094-0.8667-0.1592-1.3094-0.188-0.3322-0.0216-0.6639-0.0329-0.9977-0.0275-0.3978 0.0064-0.825 0.0842-1.2273 0.1619-0.0728-0.0057-0.1453-0.0115-0.2175-0.0184-0.2253-0.0216-0.4579-0.0138-0.6833 0.0017-0.1301 0.0093-0.2692 0.0223-0.4066 0.0412-0.1511 0.0208-0.3002 0.0486-0.4327 0.0863z"/>
</svg>
