<?xml version="1.0" encoding="UTF-8"?>
<svg id="Layer_1" data-name="Layer 1" xmlns="http://www.w3.org/2000/svg" version="1.1" viewBox="0 0 12.1 13.7">
  <path d="M10.1,2h-1.8C8.2.9,7.2,0,6.1,0s-2.1.9-2.3,2h-1.8c-1,0-1.8.8-1.8,1.8v1c0,.7.4,1.3,1,1.6v4.5c0,1.5,1.3,2.8,2.8,2.8h4.1c1.5,0,2.8-1.3,2.8-2.8v-4.5c.6-.3,1-.9,1-1.6v-1c0-1-.8-1.8-1.8-1.8ZM9.4,6.6v4.3c0,.7-.6,1.3-1.3,1.3h-4.1c-.7,0-1.3-.6-1.3-1.3v-4.3h6.6ZM5.3,2c.1-.3.4-.5.7-.5s.6.2.7.5h-1.5ZM10.4,3.8v1c0,.1-.1.3-.3.3H2c-.1,0-.3-.1-.3-.3v-1c0-.1.1-.3.3-.3h8.1c.1,0,.3.1.3.3Z" fill="#23374d" stroke-width="0"/>
  <path d="M4.5,11.2c.4,0,.8-.3.8-.7v-2.5c0-.4-.3-.7-.8-.7s-.8.3-.8.7v2.5c0,.4.3.7.8.7Z" fill="#23374d" stroke-width="0"/>
  <path d="M7.6,11.2c.4,0,.8-.3.8-.7v-2.5c0-.4-.3-.7-.8-.7s-.8.3-.8.7v2.5c0,.4.3.7.8.7Z" fill="#23374d" stroke-width="0"/>
</svg>