<?xml version="1.0" encoding="utf-8"?>
<!-- Generator: Adobe Illustrator 27.8.1, SVG Export Plug-In . SVG Version: 6.00 Build 0)  -->
<svg version="1.1" id="Layer_1" xmlns="http://www.w3.org/2000/svg" xmlns:xlink="http://www.w3.org/1999/xlink" x="0px" y="0px"
	 viewBox="0 0 27 61.5" enable-background="new 0 0 27 61.5" xml:space="preserve">
<g>
	<path fill="#35B779" d="M13.6,31.7c-0.5,0.1-0.9,0.1-1.3,0.1C5.5,31.8,0,26.3,0,19.6c0-0.9,0.1-1.9,0.3-2.7
		c0.5-0.1,0.9-0.1,1.3-0.1c6.8,0,12.3,5.5,12.3,12.2C13.9,29.9,13.8,30.9,13.6,31.7L13.6,31.7z"/>
	<path fill="#3DD791" d="M26.7,16.9c0.2,0.9,0.3,1.8,0.3,2.7c0,6.7-5.5,12.2-12.3,12.2c-0.5,0-0.9,0-1.3-0.1
		c-0.2-0.9-0.3-1.8-0.3-2.7c0-6.7,5.5-12.2,12.3-12.2C25.8,16.8,26.3,16.8,26.7,16.9L26.7,16.9z"/>
	<path fill="#006D64" d="M20.8,24.4l-6.4,7.5l0.3,28.8c0,0.4-0.4,0.8-0.8,0.8S13,61.2,13,60.8V31.9l-6.8-7.5c-0.2-0.3-0.2-0.7,0.1-1
		c0.3-0.2,0.7-0.2,1,0.1l6.5,7.1l6.1-7.1c0.2-0.3,0.7-0.3,1-0.1C21,23.7,21.1,24.1,20.8,24.4z"/>
	<path fill="#35B779" d="M13.6,48c-0.5,0.1-0.9,0.1-1.3,0.1C5.5,48.1,0,42.6,0,35.9C0,35,0.1,34,0.3,33.2c0.5-0.1,0.9-0.1,1.3-0.1
		c6.8,0,12.3,5.5,12.3,12.2C13.9,46.3,13.8,47.1,13.6,48L13.6,48z"/>
	<path fill="#3DD791" d="M26.7,33.1c0.2,0.9,0.3,1.8,0.3,2.7C27,42.5,21.5,48,14.7,48c-0.5,0-0.9,0-1.3-0.1
		c-0.2-0.9-0.3-1.8-0.3-2.7c0-6.7,5.5-12.2,12.3-12.2C25.8,33,26.3,33.1,26.7,33.1L26.7,33.1z"/>
	<path fill="#006D64" d="M13,48.3l-6.8-7.5c-0.2-0.3-0.2-0.7,0.1-1c0.3-0.2,0.7-0.2,1,0.1l6.5,7.1l6.1-7.1c0.2-0.3,0.7-0.3,1-0.1
		s0.3,0.7,0.1,1l-6.4,7.5"/>
	<path fill="#35B779" d="M13.6,14.9C13.1,15,12.8,15,12.3,15C5.5,15,0,9.5,0,2.8c0-0.9,0.1-1.9,0.3-2.7C0.8,0,1.2,0,1.6,0
		c6.8,0,12.3,5.5,12.3,12.2C13.9,13.1,13.8,14.1,13.6,14.9L13.6,14.9z"/>
	<path fill="#3DD791" d="M26.7,0.1C26.9,0.9,27,1.9,27,2.8C27,9.5,21.5,15,14.7,15c-0.5,0-0.9,0-1.3-0.1c-0.2-0.9-0.3-1.8-0.3-2.7
		C13.1,5.5,18.6,0,25.4,0C25.8,0,26.3,0,26.7,0.1L26.7,0.1z"/>
	<path fill="#006D64" d="M13,51.6V15.2L6.2,7.7C6,7.3,6,7,6.3,6.7c0.3-0.2,0.7-0.2,1,0.1l6.5,7.1l6.1-7.1c0.2-0.3,0.7-0.3,1-0.1
		c0.3,0.2,0.3,0.7,0.1,1l-6.4,7.5v36.7"/>
</g>
</svg>
