<?xml version="1.0" encoding="UTF-8"?>
<svg id="Layer_1" data-name="Layer 1" xmlns="http://www.w3.org/2000/svg" version="1.1" viewBox="0 0 12.1 13.7">
  <path d="M6.5,2.8h-3.7c-.4,0-.7.4-.7.8s.3.8.7.8h3.7c.4,0,.7-.4.7-.8s-.3-.8-.7-.8Z" fill="#fff" stroke-width="0"/>
  <path d="M12.1,4.9c0-.2,0-.4-.2-.6l-3.6-3.6c-.1-.1-.3-.2-.6-.2H1.5C.7.5,0,1.2,0,2.1v9.6C0,12.5.7,13.2,1.5,13.2h9.1c.8,0,1.5-.7,1.5-1.5v-6.7ZM8.3,6H3.9c-.8,0-1.5.7-1.5,1.5v4.1s-.8,0-.8,0V2.1h5.8l3.1,3.1v6.4s-.8,0-.8,0v-4.1c0-.8-.7-1.5-1.5-1.5ZM8.2,7.5v4.1H3.9v-4.1h4.3Z" fill="#fff" stroke-width="0"/>
</svg>