<?xml version="1.0" encoding="utf-8"?>
<!-- Generator: Adobe Illustrator 23.1.0, SVG Export Plug-In . SVG Version: 6.00 Build 0)  -->
<svg version="1.1" id="Layer_1" xmlns="http://www.w3.org/2000/svg" xmlns:xlink="http://www.w3.org/1999/xlink" x="0px" y="0px"
	 viewBox="0 0 840 600" style="enable-background:new 0 0 840 600;" xml:space="preserve" width="21px" height="15px" >
<style type="text/css">
	.st0{fill:#006233;}
	.st1{fill-rule:evenodd;clip-rule:evenodd;fill:#FFFFFF;stroke:#FFFFFF;stroke-width:0.4;}
	.st2{fill-rule:evenodd;clip-rule:evenodd;fill:#FFFFFF;stroke:#FFFFFF;}
	
		.st3{fill-rule:evenodd;clip-rule:evenodd;fill:#FFFFFF;stroke:#FFFFFF;stroke-width:4.01;stroke-linecap:round;stroke-linejoin:round;}
	.st4{fill:#FFFFFF;}
	.st5{fill:#FFFFFF;stroke:#000000;stroke-width:8.01;}
	.st6{fill:none;stroke:#F7C608;stroke-width:8.12;stroke-linecap:round;stroke-linejoin:round;}
	.st7{fill:#F7C608;}
</style>
<g id="g13237">
	<path class="st0" d="M840.6,600V0H0.6v600H840.6z"/>
	<g id="g13004">
		<g id="g9244">
			<path id="path3159" class="st1" d="M345.6,310.7c-11.7,16-3.3,26.4,8.8,27.2c8,0.5,24.5-10.3,24.5-22.9l-4.5-2.3
				c2.5,6.5-0.1,8.6-5.5,13C358.3,334.4,336.6,335.1,345.6,310.7z"/>
			<path id="path3115" class="st2" d="M438.5,352.7c66,1.7,86.9-56.4,46.2-106.1l-4,5.5c2.6,23.2,6.4,46,6.8,69.8
				c-8,8.5-19.5,5.4-21.9-4.1c0.1-12.8-4.5-23.7-10.3-34.1l-3.3,5.5c3.8,8.5,7.9,18.1,8.8,28.6c-18.8,20.5-39.6,24.7-31.9-2.3
				c-14.9,23.7,7.6,40.3,33.2,3.9c5.5,24.9,26.6,9.4,27.9,4.1c2.3-16.3,1.1-42.6-3.5-63.3c18.4,28.9,19,49.8,9.2,63.8
				C484.9,339.4,461.3,346.6,438.5,352.7L438.5,352.7z"/>
			<path id="path3117" class="st2" d="M476,287.1c-14.1,1-21.4-1.7-13.7-11.2c7.6-9.3,14.6-1.9,16.5,10.5
				c1.8,11.6-24.8,26.5-34,26.5c-13.9,0-20.3-16.3-7.5-30.9C420.8,324.7,472.8,300,476,287.1z M466.2,277.2c-1.7-0.1-3,2.7-2.1,3.2
				c2.5,1.6,6.4,0.6,6.8-0.2C471.7,278.5,468.6,277.2,466.2,277.2L466.2,277.2z"/>
			<path id="path3140" class="st2" d="M399.3,307.2c-13.6,24.3,0,34.3,17.4,31.5c10.1-1.7,23-8.2,30.4-17.2
				c0.1-19.7-0.2-39.2-2.1-58.3c6.8-7.4-0.6-7.3-3.2-15.2c-1.2,4.6-4,9.6-1.3,13.2c2,19.4,3,39,3,58.5c-13.7,10-23.9,13.7-31.3,13.6
				C397.2,333.3,393.9,321.7,399.3,307.2z"/>
			<path id="path3150" class="st2" d="M427,313.6c-0.2-18.3-0.5-39.1-2.4-51.9c7.1-7.1-0.4-7.3-2.7-15.3c-1.4,4.5-4.3,9.5-1.7,13.1
				c1.2,19.6,2.3,39.2,2.5,58.8C424.5,317.4,426.3,317,427,313.6z"/>
			<path id="path3152" class="st1" d="M374.4,312.7c-1.7-2-3-4.2-4.4-6.1c-0.2-2.8,1.8-5.3,2.1-6.7c2.3,3.3,3.7,5.7,5.5,7.3
				 M380.1,308.5c3.4,1.2,7.5,1.2,11.4,1.3c14.8,0.3,30.4-2,28.8,16.3c-1.5,16.2-16.2,25.6-29.5,25.5c-18.9-0.2-35-19.1-5.9-54
				c2.8-0.4,6.5,0.3,9.5,0.5c5.2,0.4,10.5-0.1,16.6-4.5c-0.7-11.5-0.7-22.4-2.3-32.7c-2.6-3.7,0.4-8.6,1.7-13.1
				c2.3,8,9.7,8.1,2.7,15.3c1.3,10,1.9,20.1,1.9,30.3c-3.5,4.9-6.3,10.1-16.6,12.1c-10.5-1.4-15.3-14.8-26.3-10.4
				c3-12.1,31-14.9,33.8-5.3c-1.9,10-27.9,6-34.8,38.2c-2.1,9.9,9.4,19.1,21.2,18.3c11.5-0.7,23.8-8,25.1-20.3
				c1-10.2-14.9-9-21.6-8.9c-9.7,0.2-15.8-1.1-19.5-3.1 M386.2,291.7c1.7-1.5,7.7-2.5,9.9-0.1c-1.6,0.9-3.2,2.1-4.5,3.3
				C389.7,294,387.9,293,386.2,291.7L386.2,291.7z"/>
			<path id="path3161" class="st2" d="M400.9,257.7c1.5,2.6,2.3,5.6,2.4,8.6c-1,4.3-5,8.3-9.2,8.4c-3.1,0.3-6.1-1.4-7.5-4.2
				c-0.2-0.5-1.3-1.5-2.4-1c-4.6,6.8-8,9.7-12.1,9.7c-8.2-0.1-5.8-6.8-13.4-8.9c-3.2-0.1-8.4,2.8-11,8.6
				c-10.1,26.1-19.4-0.1-15.4-12.3c0.6,11.6,3.7,18.6,6.8,18.4c2.3-0.2,4.4-5.1,7.3-10.2c2.3-3.9,7.7-11,13.4-11
				c5.3,0.1,2,8.9,12.4,8.8c5.1-0.1,9.7-3.6,14.4-10.7c1-0.2,1.3,1.5,1.5,2.1c0.7,2.4,5.3,9.1,11.6,3c-0.3-1.3-0.2-3.5-1.8-4
				L400.9,257.7z"/>
			<path id="path3163" class="st1" d="M433.9,236.1c-4,2-8.8,1.2-12-2c4-0.7,7.1-2,8.1-4.9c-1.8-3.7-6.1-5.3-12.2-5.4
				c-8.1,0.2-12.3,3.2-12.8,7.3c3.8,0.1,7.1-0.8,8.6,2.5c-6.6,3-14.5,4-23,4c-13.9,0.7-16-5.1-19.6-10.1c-0.6-0.5-1.4-0.8-2.1-0.8
				c-4.3,0-7.5,13.7-12.3,13.6c-4.8-0.6-3.8-8.8-5.2-13.5c-1.2,7.4,1.5,34.8,16.5,5c0.5-1,1.1-0.7,1.5,0.1c4,8.3,12.2,11.2,21,11.6
				c7.4,0.4,16.8-2.6,26.9-7.7c2.7,2.7,4.8,5.7,10.4,6.3c6.6,0.3,13.6-4,15.2-9.4c0.8-2.8,1-8.2-2.3-8.3c-4.5-0.1-7.7,9.8-6.7,18.6
				c0.1-0.1,0.6-2.2,0.6-2.2 M414.7,229c2.9-1.2,5.8-1.8,8.1,0.9c-1.3,0.3-2.6,0.9-3.8,1.6C417.7,230.6,416,230.1,414.7,229z
				 M436.3,235.1c0.7-2.9,1.1-5.3,3.8-6.8C440.6,231.4,440.7,233.1,436.3,235.1L436.3,235.1z"/>
			<path id="path3169" class="st1" d="M454,239.6c-1-2.4-1.6-4.9-2-7.4c-0.6-5.5,4.6-8.6,9.3-8.2s8,2.1,12.7,3.5
				c3.6,1.1,8.5,2,13.2,3.2c2.6,1.1,0,3.9-0.7,4.2c-11.7,4.2-20,10.7-27.4,11c-4.4,0.2-8.4-2.4-11.9-7.8
				c-0.2-10.4-0.6-22.7-1.8-30.4c1.2-1.2,2.2-2.5,2.9-4c0.9,10.2,1.3,20.9,1.5,31.6C450.5,237.3,452,238.8,454,239.6L454,239.6z
				 M461.4,240.4c-6.3,1.6-5.5-3.2-6.1-6.2c-0.7-3.5-0.2-7.4,4.6-6.4c6,1.5,11.9,3.4,17.6,5.7L461.4,240.4z"/>
			<path id="path3173" class="st1" d="M455.3,245.5l0.9,3.8h0.7l-0.3-3.6"/>
			<path id="path5196" class="st3" d="M355.8,285.5l3.2-3l3.7,2.8l-3.4,2.8L355.8,285.5z"/>
			<path id="path6168" class="st3" d="M363.8,284.5l3.2-3l3.7,2.8l-3.4,2.8L363.8,284.5z"/>
			<path id="path6170" class="st3" d="M341.4,253.8l3.2-3l3.7,2.8l-3.4,2.8L341.4,253.8z"/>
			<path id="path6172" class="st3" d="M342.9,262.6l3.2-3l3.6,2.8l-3.4,2.8L342.9,262.6z"/>
			<path id="path6174" class="st3" d="M401,277.2l2.9-2.2l2.7,2.7l-3.1,2L401,277.2z"/>
			<path id="path6176" class="st3" d="M362.2,221.3l2.1-1.9l2.4,1.9l-2.2,1.8L362.2,221.3z"/>
			<path id="path6178" class="st3" d="M367.5,220.7l2.1-2l2.4,1.9l-2.2,1.8L367.5,220.7z"/>
			<path id="path6180" class="st3" d="M478.6,242.8l-2,1.5l-1.9-1.8l2.1-1.4L478.6,242.8z"/>
			<path id="path9240" class="st1" d="M384.9,297.4l-0.2,3.3l5.7,0.5l4.6-3.1L384.9,297.4L384.9,297.4z"/>
			<path id="path9242" class="st2" d="M433.1,236.7l1.7-0.3l-0.2,4.2l-1,0.4L433.1,236.7L433.1,236.7z"/>
		</g>
		<path id="path2722" class="st4" d="M420.6,407.4c64.2,0,116.5-47.5,116.5-106c0-32.1-15.8-60.8-40.6-80.2
			c15.3,16.2,23.9,37.6,23.9,59.8c0,50.7-44.7,91.9-99.8,91.9s-99.8-41.2-99.8-91.9c0.1-22.2,8.6-43.6,23.9-59.8
			c-24.8,19.4-40.6,48.1-40.6,80.2C304.1,359.9,356.4,407.4,420.6,407.4L420.6,407.4z"/>
		<g id="g2908">
			<path id="path2910" class="st5" d="M404.9,466.3c-25.7,11.7-57.8,8.5-85-7.4c-1.2-0.5-1.8,0.3-0.6,3.2c2.9,7.7,5.3,13.8-3.5,25.2
				c-3.8,5,0.6,5.9,7,5.3c32.7-2.9,64.8-9.6,80.3-15.1L404.9,466.3z"/>
			<path id="path2912" class="st5" d="M404.3,480.1c-10.2,3.7-27.7,8.2-47.3,11.4c-7.9,1.1-7.6,5.6,6.4,7.2
				c14.3,1.3,32.7-8,43.8-16.2L404.3,480.1z"/>
			<path id="path2914" class="st5" d="M420.6,454.6c3.5,0,9.9-1.3,16.4-2.1c12-1.9,3.2,14.9-16.4,14.9v5.6
				c19.9,0,40.6-19.7,36.2-28.4c-6.1-12.8-23.1-1.9-36.2-1.9s-30.1-10.9-36.2,1.9c-4.4,8.8,16.4,28.4,36.2,28.4v-5.6
				c-19.6,0-28.3-16.7-16.4-14.9C410.7,453.3,417.1,454.6,420.6,454.6z"/>
			<path id="path2916" class="st5" d="M436.4,466.3c25.7,11.7,57.8,8.5,85-7.4c1.2-0.5,1.8,0.3,0.6,3.2c-2.9,7.7-5.3,13.8,3.5,25.2
				c3.8,5-0.6,5.9-7,5.3c-32.7-2.9-64.8-9.6-80.3-15.1L436.4,466.3z"/>
			<path id="path2918" class="st5" d="M437,480.1c10.2,3.7,27.4,8.2,47.3,11.4c7.9,1.1,7.6,5.6-6.4,7.2c-14.3,1.3-32.7-8-43.8-16.2
				L437,480.1z"/>
			<path id="path2920" class="st5" d="M421.5,477.5c0.6,4.5,1.5,14.4,8.2,10.1c9-5.6,11.1-9.8,11.1-17.8c0-5-6.7-12.5-20.1-12.5
				s-20.1,7.4-20.1,12.5c0,8,2,12.2,11.1,17.8c6.7,4.3,7.3-5.6,8.2-10.1C420,475.9,421.5,476.4,421.5,477.5z"/>
		</g>
		<g id="g2724">
			<path id="path2726" class="st5" d="M412.2,137.2c-3.8-19.7-35.6-21-40.6-24.2c-5.8-3.4-5,0-2.9,5.3c5.8,13.8,25.7,19.4,34.7,21
				C410.7,140.4,413,141,412.2,137.2z"/>
			<path id="path2728" class="st5" d="M421.8,137.8c3.2-20.2-28.3-29.8-32.1-34.3c-4.4-4.8-5-1.9-2.9,3.7c3.8,12,17.5,26,25.7,29.8
				C419.2,140.1,421.2,141.5,421.8,137.8z"/>
			<path id="path2730" class="st5" d="M447.8,149.4c2.9-24.2-22.8-27.9-29.5-35.6c-4.4-4.8-4.7-2.1-3.2,3.4
				c2.9,12.2,15.8,26.6,23.6,31.1C444.9,151.8,447.5,153.2,447.8,149.4z"/>
			<path id="path2732" class="st5" d="M439.9,144.1c-26.6-15.7-45.3-6.9-52.8-7.7c-7.3-0.8-9.6,3.4,2.9,9.8
				c15.5,7.7,37.1,6.6,45.5,3.7C444.3,146.8,441.6,145.2,439.9,144.1z"/>
			<path id="path2734" class="st5" d="M479.9,154.7c-8.2-26-27.1-21.8-32.7-25s-6.1-2.4-5,3.4c2.3,10.4,21.9,21.8,31.5,25.2
				C477.3,159.5,481.6,161.1,479.9,154.7z"/>
			<path id="path2736" class="st5" d="M476.1,159.3c-22.8-16.7-40.6-4.3-47.6-6.1c-5.3-1.3-2.9,1.9-0.9,3.2
				c14.6,9.3,32.7,14.3,46.7,8.5C479.9,162.7,480.2,162.2,476.1,159.3z"/>
			<path id="path2738" class="st5" d="M525.4,176.3c0.3-16.5-37.1-23.4-45-33.5c-4.7-6.1-8.8-2.9-6.4,6.9
				c3.5,12.8,29.2,26.8,43.2,29.5C525.7,180.8,525.4,178.1,525.4,176.3z"/>
			<path id="path2740" class="st5" d="M524.3,179.2c-23.6-19.4-43.5-13-50.8-14.9c-7.3-1.6-10.2,2.4,1.2,10.4
				c14,9.6,35.6,11.4,44.7,9.6S526,180.5,524.3,179.2z"/>
			<path id="path2742" class="st5" d="M566.6,207.6c-6.7-28.1-28-34-33.3-39.3c-5-5.3-10.2-3.7-5.8,9c5.3,15.1,22.5,28.4,31.5,31.6
				C567.7,212.4,567.2,209.7,566.6,207.6z"/>
			<path id="path2744" class="st5" d="M566.3,211.3c-17.2-25.2-39.7-24.4-46.7-27.9c-6.7-3.7-11.4-0.5-2.3,10.4
				c10.5,13.3,32.1,20.7,42,21.3S567.5,213.2,566.3,211.3z"/>
			<path id="path2746" class="st5" d="M588.5,241.3c9.9-28.7-12.8-39.3-15.2-44.1c-2.6-4.8-5.3-4.8-6.7,0.3
				c-6.4,20.4,14.3,40.4,17.5,44.4C587.3,245.6,587.9,243.7,588.5,241.3z"/>
			<path id="path2748" class="st5" d="M583.8,249.3c-7.9-32.1-28.6-30.3-33.3-34.8c-5-4.5-5.5-1.3-4.7,4.5
				c2.3,15.7,23.1,26.3,32.4,31.6C581.2,252.2,584.7,254.1,583.8,249.3z"/>
			<path id="path2750" class="st5" d="M603.6,287c14.3-30.3-2.6-50.7-7.9-55.3c-5.3-4.3-8.5-6.1-6.7,0c2.3,9.3-5.8,33.2,6.7,50.7
				C599.9,288.4,600.4,294,603.6,287z"/>
			<path id="path2752" class="st5" d="M596.1,293.1c3.2-18.6-8.5-35.6-21-42.2c-7.3-4-7.6-2.9-7.6,2.6c0.6,17.3,18.4,31.6,23.6,39.6
				C596.1,300.6,595.8,295,596.1,293.1z"/>
			<path id="path2754" class="st5" d="M592.9,341.5c-10.5-35.1,11.4-55.3,18.1-59.2c6.4-4.3,10.5-5.8,7.6,0.8
				c-4.4,9.8,0.3,37.2-16.3,54.5C596.9,343.3,594.9,349.4,592.9,341.5z"/>
			<path id="path2756" class="st5" d="M595.2,333.8c8.8-30.5-10.2-47.8-16-51.3c-5.5-3.5-9-4.8-6.4,0.8c3.5,8.5-0.3,32.4,14.3,47.3
				C591.7,335.6,593.4,340.7,595.2,333.8z"/>
			<path id="path2758" class="st5" d="M584.4,319.4c-15.8,15.4-16,38-9,51.3c4.4,7.7,5,7.2,9,1.6c11.1-16.2,4.4-39.6,5-49.9
				C589.6,312.5,586.1,317.8,584.4,319.4z"/>
			<path id="path2760" class="st5" d="M610.4,343.9c0,21.3-14.3,38.5-29.5,43.8c-8.8,2.9-8.8,2.1-7.6-4.3
				c4.1-23.9,24.2-32.7,31.5-40.4C611.8,335.6,610.4,341.7,610.4,343.9z"/>
			<path id="path2762" class="st5" d="M556.1,407.1c25.7-21.3,12-36.1,13.1-49.9c0.6-7.4-2.6-5.6-5.5-2.9
				c-16.3,14.6-17.2,40.6-13.7,50.7C551.4,409.5,553.7,409,556.1,407.1z"/>
			<path id="path2764" class="st5" d="M590.5,393.3c-8.5,23.4-30.9,37.7-49.9,38.5c-11.1,0.5-10.8-0.3-7-7.2
				c14.3-25,39.7-27.9,51.1-34.3C595.2,384.5,591.4,390.9,590.5,393.3z"/>
			<path id="path2766" class="st5" d="M520.7,437.1c33.3-15.1,26.6-40.4,32.7-46.8c4.4-4.5-0.9-4-3.5-2.4
				c-19.6,10.4-35.3,26.8-35.6,44.4C514.3,439,514.9,439.8,520.7,437.1z"/>
			<path id="path2768" class="st5" d="M475.2,465.3c42,6.1,61.6-22.9,73.9-25.5c6.4-1.3,1.8-3.7-1.5-4c-28-2.9-63.6,9-74.4,22.3
				C468.8,463.4,468.8,464.5,475.2,465.3z"/>
			<path id="path2770" class="st5" d="M517.8,419.8c-8.5,25.2-40,46-63.6,47.5c-11.1,0.8-11.1-0.3-7-6.9c19-31.4,52-36.7,63.6-44.6
				C520.7,409,518.7,417.4,517.8,419.8z"/>
			<path id="path2772" class="st5" d="M429.1,137.2c3.8-19.7,35.6-21,40.6-24.2c5.8-3.4,5,0,2.9,5.3c-5.8,13.8-25.7,19.4-34.7,21
				C430.5,140.4,428.2,141,429.1,137.2z"/>
			<path id="path2774" class="st5" d="M419.5,137.8c-3.2-20.2,28.3-29.8,32.1-34.3c4.4-4.8,5-1.9,2.9,3.7c-3.8,12-17.5,26-25.7,29.8
				C422.1,140.1,420,141.5,419.5,137.8z"/>
			<path id="path2776" class="st5" d="M393.5,149.4c-2.9-24.2,22.8-27.9,29.5-35.6c4.4-4.8,4.7-2.1,3.2,3.4
				c-2.9,12.2-15.8,26.6-23.6,31.1C396.4,151.8,393.8,153.2,393.5,149.4z"/>
			<path id="path2778" class="st5" d="M401.4,144.1c26.6-15.7,45.3-6.9,52.8-7.7c7.3-0.8,9.6,3.4-2.9,9.8
				c-15.5,7.7-37.1,6.6-45.5,3.7C397,146.8,399.6,145.2,401.4,144.1z"/>
			<path id="path2780" class="st5" d="M361.4,154.7c8.2-26,27.1-21.8,32.7-25s6.1-2.4,5,3.4c-2.3,10.4-21.9,21.8-31.5,25.2
				C364,159.5,359.6,161.1,361.4,154.7z"/>
			<path id="path2782" class="st5" d="M365.2,159.3c22.8-16.7,40.6-4.3,47.6-6.1c5.3-1.3,2.9,1.9,0.9,3.2
				c-14.6,9.3-32.7,14.3-46.7,8.5C361.4,162.7,361.1,162.2,365.2,159.3z"/>
			<path id="path2784" class="st5" d="M315.8,176.3c-0.3-16.5,37.1-23.4,45-33.5c4.7-6.1,8.8-2.9,6.4,6.9
				c-3.5,12.8-29.2,26.8-43.2,29.5C315.5,180.8,315.8,178.1,315.8,176.3z"/>
			<path id="path2786" class="st5" d="M317,179.2c23.6-19.4,43.5-13,50.8-14.9c7.3-1.6,10.2,2.4-1.2,10.4
				c-14,9.6-35.6,11.4-44.7,9.6S315.2,180.5,317,179.2z"/>
			<path id="path2788" class="st5" d="M274.7,207.6c6.7-28.1,28-34,33.3-39.3c5-5.3,10.2-3.7,5.8,9c-5.3,15.1-22.5,28.4-31.5,31.6
				C273.5,212.4,274.1,209.7,274.7,207.6z"/>
			<path id="path2790" class="st5" d="M275,211.3c17.2-25.2,39.7-24.4,46.7-27.9c6.7-3.7,11.4-0.5,2.3,10.4
				c-10.5,13.3-32.1,20.7-42,21.3S273.8,213.2,275,211.3z"/>
			<path id="path2792" class="st5" d="M252.8,241.3c-9.9-28.7,12.8-39.3,15.2-44.1c2.6-4.8,5.3-4.8,6.7,0.3
				c6.4,20.4-14.3,40.4-17.5,44.4C253.9,245.6,253.4,243.7,252.8,241.3z"/>
			<path id="path2794" class="st5" d="M257.4,249.3c7.9-32.1,28.6-30.3,33.3-34.8c5-4.5,5.5-1.3,4.7,4.5
				c-2.3,15.7-23.1,26.3-32.4,31.6C260.1,252.2,256.6,254.1,257.4,249.3z"/>
			<path id="path2796" class="st5" d="M237.6,287c-14.3-30.3,2.6-50.7,7.9-55.3c5.3-4.3,8.5-6.1,6.7,0c-2.3,9.3,5.8,33.2-6.7,50.7
				C241.4,288.4,240.8,294,237.6,287z"/>
			<path id="path2798" class="st5" d="M245.2,293.1c-3.2-18.6,8.5-35.6,21-42.2c7.3-4,7.6-2.9,7.6,2.6
				c-0.6,17.3-18.4,31.6-23.6,39.6C245.2,300.6,245.5,295,245.2,293.1z"/>
			<path id="path2800" class="st5" d="M248.4,341.5c10.5-35.1-11.4-55.3-18.1-59.2c-6.4-4.3-10.5-5.8-7.6,0.8
				c4.4,9.8-0.3,37.2,16.3,54.5C244.3,343.3,246.1,349.4,248.4,341.5z"/>
			<path id="path2802" class="st5" d="M246.1,333.8c-8.8-30.5,10.2-47.8,16-51.3c5.5-3.5,9-4.8,6.4,0.8c-3.5,8.5,0.3,32.4-14.3,47.3
				C249.6,335.6,247.8,340.7,246.1,333.8z"/>
			<path id="path2804" class="st5" d="M256.9,319.4c15.8,15.4,16,38,9,51.3c-4.4,7.7-5,7.2-9,1.6c-11.1-16.2-4.4-39.6-5-49.9
				C251.6,312.5,255.1,317.8,256.9,319.4z"/>
			<path id="path2806" class="st5" d="M230.9,343.9c0,21.3,14.3,38.5,29.5,43.8c8.8,2.9,8.8,2.1,7.6-4.3
				c-4.1-23.9-24.2-32.7-31.5-40.4C229.4,335.6,230.9,341.7,230.9,343.9z"/>
			<path id="path2808" class="st5" d="M285.2,407.1c-25.7-21.3-12-36.1-13.1-49.9c-0.6-7.4,2.6-5.6,5.5-2.9
				c16.4,14.6,17.2,40.6,13.7,50.7C289.8,409.5,287.5,409,285.2,407.1z"/>
			<path id="path2810" class="st5" d="M250.7,393.3c8.5,23.4,30.9,37.7,49.9,38.5c11.1,0.5,10.8-0.3,7-7.2
				c-14.3-25-39.7-27.9-51.1-34.3C246.1,384.5,249.9,390.9,250.7,393.3z"/>
			<path id="path2812" class="st5" d="M320.5,437.1c-33.3-15.1-26.6-40.4-32.7-46.8c-4.4-4.5,0.9-4,3.5-2.4
				c19.6,10.4,35.3,26.8,35.6,44.4C326.9,439,326.3,439.8,320.5,437.1z"/>
			<path id="path2814" class="st5" d="M366,465.3c-42,6.1-61.6-22.9-73.9-25.5c-6.4-1.3-1.8-3.7,1.5-4c28-2.9,63.6,9,74.4,22.3
				C372.5,463.4,372.5,464.5,366,465.3z"/>
			<path id="path2816" class="st5" d="M323.4,419.8c8.5,25.2,40,46,63.6,47.5c11.1,0.8,11.1-0.3,7-6.9c-19-31.4-52-36.7-63.6-44.6
				C320.5,409,322.5,417.4,323.4,419.8z"/>
		</g>
		<g id="g2818">
			<path id="path2820" class="st0" d="M470,161.7c-5.5-3.7-26-1.6-29.8-4C447.5,163.2,463.8,159.3,470,161.7z"/>
			<path id="path2822" class="st0" d="M519.3,171.2c-4.4-7.2-30.4-11.9-34.2-18.3C491.9,165.1,512,163.5,519.3,171.2z"/>
			<path id="path2824" class="st0" d="M515.5,179.5c-9.6-8.5-32.1-5.1-38.8-10.1C492.4,182.4,501.2,172.3,515.5,179.5z"/>
			<path id="path2826" class="st0" d="M459.2,141.7c6.1,2.9,13.7,5.8,17.5,12.8c-4.4-5.3-12.3-7.4-18.7-12
				C458.3,142.5,458.9,142,459.2,141.7z"/>
			<path id="path2828" class="st0" d="M554.9,196.5c-3.8-8-17.2-16.7-18.4-19.7C540.3,187.2,551.4,189.5,554.9,196.5z"/>
			<path id="path2830" class="st0" d="M558.4,210.5c-11.7-16.7-30.1-14.9-37.4-21.3C526.6,195.4,547.6,199.4,558.4,210.5z"/>
			<path id="path2832" class="st0" d="M585.6,236.3c0.9-17.8-13.7-24.4-14.3-34.5C571,213.7,586.1,230,585.6,236.3z"/>
			<path id="path2834" class="st0" d="M578.3,245.9c-2.9-15.4-22.8-16.5-26.3-25.5C552,228.9,575.3,237.6,578.3,245.9z"/>
			<path id="path2836" class="st0" d="M594.6,237.1c10.5,11.7,3.2,29.5,7.6,42.5C596.9,270,599.6,246.1,594.6,237.1z"/>
			<path id="path2838" class="st0" d="M577.4,287c15.8,15.4,9.3,32.7,15.8,40.1C585.3,316.8,586.4,296.6,577.4,287z"/>
			<path id="path2840" class="st0" d="M610.1,289.1c-13.4,13.5-5.3,34-12.3,43.6C605.7,324.5,604.5,299.2,610.1,289.1z"/>
			<path id="path2842" class="st0" d="M593.1,289.1c-1.8-15.7-17.8-23.9-19.3-32.4C572.1,265.2,589.3,278.5,593.1,289.1z"/>
			<path id="path2844" class="st0" d="M585,326.6c2.6,10.9-7,34.3-4.1,41.4C574.5,355.6,586.4,332,585,326.6z"/>
			<path id="path2846" class="st0" d="M605.7,351.6c-6.4,19.4-19.3,18.1-23.3,29.8C585.3,370.2,602.2,360.1,605.7,351.6z"/>
			<path id="path2848" class="st0" d="M564,360.6c-8.5,13-1.5,27.9-8.5,37.2C565.4,388.5,560.2,371.2,564,360.6z"/>
			<path id="path2850" class="st0" d="M584.4,396.2c-10.2,17.3-31.2,15.7-39.7,28.1C553.2,408.7,579.1,406,584.4,396.2z"/>
			<path id="path2852" class="st0" d="M547.3,394.1c-18.1,11.4-12.5,23.4-26.3,36.1C538.3,417.4,536.8,403.4,547.3,394.1z"/>
			<path id="path2854" class="st0" d="M538.8,440.3c-17.5-0.5-42.6,20.2-57.8,18.6C496.2,461.8,524.3,443.2,538.8,440.3z"/>
			<path id="path2856" class="st0" d="M510.5,421.7c-1.2,16.2-46.7,26.6-51.7,37.5C464.4,444.8,504.4,434.2,510.5,421.7z"/>
			<path id="path2858" class="st0" d="M407.5,122.9c-5.9-4.5-12.9-8.2-14.9-12.8c1.5,5.8,7.3,10.1,13.1,14.1
				C406.3,124,406.9,123.1,407.5,122.9z"/>
			<path id="path2860" class="st0" d="M397.6,127.7c-9-4-19.6-3.7-24.2-9.3c2.9,5.6,12.8,7.7,21.3,10.6
				C395.6,128.4,396.5,128,397.6,127.7z"/>
			<path id="path2862" class="st0" d="M371.3,161.7c5.5-3.7,26-1.6,29.8-4C393.8,163.2,377.4,159.3,371.3,161.7z"/>
			<path id="path2864" class="st0" d="M322,171.2c4.4-7.2,30.4-11.9,34.2-18.3C349.4,165.1,329.3,163.5,322,171.2z"/>
			<path id="path2866" class="st0" d="M325.8,179.5c9.6-8.5,32.1-5.1,38.8-10.1C348.8,182.4,340.1,172.3,325.8,179.5z"/>
			<path id="path2868" class="st0" d="M364.6,154.5c5.5-10.6,21.3-12,25.4-18.3C383.8,145.7,370.4,147.3,364.6,154.5z"/>
			<path id="path2870" class="st0" d="M409.5,145.2c16-6.9,31.8-1.1,39.4-4.3C439.6,145.5,417.4,143.3,409.5,145.2z"/>
			<path id="path2872" class="st0" d="M286.3,196.5c3.8-8,17.2-16.7,18.4-19.7C300.9,187.2,289.8,189.5,286.3,196.5z"/>
			<path id="path2874" class="st0" d="M282.8,210.5c11.7-16.7,30.1-14.9,37.4-21.3C314.6,195.4,293.6,199.4,282.8,210.5z"/>
			<path id="path2876" class="st0" d="M255.7,236.3c-0.9-17.8,13.7-24.4,14.3-34.5C270.3,213.7,255.1,230,255.7,236.3z"/>
			<path id="path2878" class="st0" d="M263,245.9c2.9-15.4,22.8-16.5,26.3-25.5C289.3,228.9,265.9,237.6,263,245.9z"/>
			<path id="path2880" class="st0" d="M246.6,237.1c-10.5,11.7-3.2,29.5-7.6,42.5C244.3,270,241.7,246.1,246.6,237.1z"/>
			<path id="path2882" class="st0" d="M263.9,287c-15.8,15.4-9.3,32.7-15.8,40.1C256,316.8,254.8,296.6,263.9,287z"/>
			<path id="path2884" class="st0" d="M231.2,289.1c13.4,13.5,5.3,34,12.3,43.6C235.6,324.5,236.7,299.2,231.2,289.1z"/>
			<path id="path2886" class="st0" d="M248.1,289.1c1.8-15.7,17.8-23.9,19.3-32.4C269.1,265.2,251.9,278.5,248.1,289.1z"/>
			<path id="path2888" class="st0" d="M256.3,326.6c-2.6,10.9,7,34.3,4.1,41.4C266.8,355.6,254.8,332,256.3,326.6z"/>
			<path id="path2890" class="st0" d="M235.6,351.6c6.4,19.4,19.3,18.1,23.3,29.8C256,370.2,239.1,360.1,235.6,351.6z"/>
			<path id="path2892" class="st0" d="M277.3,360.6c8.5,13,1.5,27.9,8.5,37.2C275.8,388.5,281.1,371.2,277.3,360.6z"/>
			<path id="path2894" class="st0" d="M256.9,396.2c10.2,17.3,31.2,15.7,39.7,28.1C288.1,408.7,262.1,406,256.9,396.2z"/>
			<path id="path2896" class="st0" d="M293.9,394.1c18.1,11.4,12.5,23.4,26.3,36.1C303,417.4,304.4,403.4,293.9,394.1z"/>
			<path id="path2898" class="st0" d="M302.4,440.3c17.5-0.5,42.6,20.2,57.8,18.6C345,461.8,317,443.2,302.4,440.3z"/>
			<path id="path2900" class="st0" d="M330.7,421.7c1.2,16.2,46.7,26.6,51.7,37.5C376.8,444.8,336.8,434.2,330.7,421.7z"/>
			<path id="path2902" class="st0" d="M397,145.7c3.5-14.3,21-17,23.4-25.5C419.5,129.3,398.7,139.3,397,145.7z"/>
			<path id="path2904" class="st0" d="M448.6,110.1c-2.6,10.9-21.6,17-24.2,25.2C425.3,124.2,444.9,117.8,448.6,110.1z"/>
			<path id="path2906" class="st0" d="M433.8,135.9c9-13.3,27.7-9.8,34.1-17.5C463.2,127.4,440.2,127.7,433.8,135.9z"/>
		</g>
		<path id="path12826" class="st6" d="M557.3,300c0,69-61.5,124.9-137.3,124.9S282.8,369,282.8,300S344.2,175.1,420,175.1
			S557.3,231.1,557.3,300z"/>
		<g id="g12874">
			<path id="path12861" class="st7" d="M393.1,425l-0.5,1.5c-0.4,1-1.5,1.7-2.6,1.5c-2.8-0.8-6.5-1.5-9.9-2.4l3.1-9.7
				c3.6,1,7.4,1.7,10,2.1c1,0.2,1.6,1.1,1.4,2.1c0,0.1,0,0.2-0.1,0.2l-0.4,1.3 M370.6,415.7l0.5-1.5c0.4-1,1.5-1.6,2.5-1.3
				c0,0,0,0,0,0c2.7,1,6,2.1,9.6,3.1l-3.1,9.7c-3.4-0.9-6.7-1.8-9.7-2.9c-1-0.5-1.3-2.6-1-3.6"/>
			<path id="path12865" class="st0" d="M391.2,424.2l-0.4,1.1c-0.4,0.8-1.3,1.2-2.1,1c-2.3-0.6-5.4-1.3-8.2-2l2.2-6.9
				c3,0.8,6.1,1.4,8.3,1.8c0.9,0.3,1.5,1,1.2,1.7l-0.3,0.9 M372.3,416.8l0.4-1.1c0.3-0.8,1.2-1.1,2-0.8c2.3,0.8,5,1.7,8,2.5
				l-2.2,6.9c-2.8-0.8-5.6-1.5-8.1-2.4c-0.8-0.6-1.2-1.6-0.9-2.6"/>
		</g>
		<g id="g12878">
			<path id="path12880" class="st7" d="M355.6,412.9l-0.9,1.3c-0.7,0.9-1.9,1.2-3,0.8c-2.5-1.4-5.8-3.1-8.8-4.8l6-8.5
				c2.9,1.7,5.9,3.2,8.9,4.6c0.9,0.4,1.2,1.5,0.8,2.3c0,0.1-0.1,0.2-0.2,0.2l-0.8,1.1 M336.8,398.2l0.9-1.3c0.7-0.9,1.9-1.1,2.8-0.6
				c2.7,2,5.4,3.8,8.3,5.5l-6,8.5c-2.9-1.7-5.9-3.4-8.4-5.3c-0.8-0.8-0.5-2.8,0.2-3.7"/>
			<path id="path12882" class="st0" d="M354,411.6l-0.7,1c-0.6,0.6-1.5,0.8-2.3,0.4c-2-1.2-4.8-2.6-7.3-4l4.3-6.1
				c2.7,1.5,5.4,3,7.4,3.9c0.7,0.3,1,1.1,0.7,1.7c0,0.1-0.1,0.1-0.1,0.2l-0.6,0.8 M338.2,399.7l0.7-1c0.6-0.7,1.5-0.8,2.2-0.3
				c1.9,1.4,4.3,2.9,6.9,4.5l-4.3,6c-2.5-1.4-4.9-2.9-7-4.3c-0.6-0.8-0.6-1.9-0.1-2.8"/>
		</g>
		<g id="g12884">
			<path id="path12886" class="st7" d="M323.3,391.7l-1.3,1c-0.9,0.7-2.2,0.7-3.1,0c-1.9-2-4.6-4.4-6.9-6.9l8.4-6.6
				c2.3,2.3,4.6,4.6,7.1,6.7c0.7,0.6,0.7,1.7,0.1,2.4c-0.1,0.1-0.2,0.2-0.3,0.2l-1.1,0.9 M309.9,372.7l1.3-1
				c0.9-0.7,2.1-0.6,2.9,0.2c2,2.6,4,5,6.3,7.4l-8.4,6.6c-2.3-2.4-4.6-4.8-6.5-7.2c-0.5-1,0.4-2.8,1.3-3.5"/>
			<path id="path12888" class="st0" d="M322.2,390l-1,0.8c-0.7,0.5-1.7,0.4-2.4-0.2c-1.6-1.7-3.8-3.7-5.7-5.7l6-4.7
				c2.1,2.2,4.3,4.2,5.9,5.6c0.6,0.5,0.6,1.3,0.1,1.9c0,0-0.1,0.1-0.1,0.1l-0.8,0.6 M310.7,374.5l1-0.8c0.7-0.5,1.7-0.4,2.2,0.3
				c1.4,1.8,3.2,3.9,5.3,6.1l-6,4.7c-1.9-2-3.8-4-5.4-6c-0.5-0.8,0.1-2.2,0.8-2.7"/>
		</g>
		<g id="g12890">
			<path id="path12892" class="st7" d="M298.9,363l-1.6,0.7c-1.1,0.4-2.3,0.1-3-0.8c-1.2-2.4-3.1-5.4-4.5-8.3l10.1-4.2
				c1.4,2.8,3,5.6,4.8,8.2c0.4,0.9,0.1,1.9-0.8,2.4c-0.1,0-0.2,0.1-0.2,0.1l-1.3,0.6 M291.9,341.4l1.6-0.7c1-0.5,2.2-0.1,2.7,0.9
				c1.1,3,2.3,5.9,3.7,8.7l-10.1,4.2c-1.5-2.9-2.9-5.8-4-8.6c-0.2-1.1,1.3-2.6,2.3-3"/>
			<path id="path12894" class="st0" d="M298.3,361.1l-1.1,0.5c-0.8,0.2-1.7-0.1-2.2-0.8c-1-2-2.5-4.5-3.7-7l7.2-3
				c1.3,2.6,2.8,5.1,3.9,6.9c0.4,0.6,0.2,1.5-0.4,1.9c-0.1,0.1-0.2,0.1-0.2,0.1l-1,0.4 M292.1,343.3l1.1-0.5c0.8-0.3,1.7,0.1,2,0.9
				c0.8,2.1,1.8,4.6,3.2,7.2l-7.2,3c-1.2-2.4-2.4-4.8-3.4-7.1c-0.2-0.9,0.8-2,1.6-2.4"/>
		</g>
		<g id="g12896">
			<path id="path12898" class="st7" d="M284.4,329.3l-1.7,0.2c-1.1,0.1-2.2-0.5-2.6-1.5c-0.4-2.6-1.3-6-1.8-9.2l11-1.4
				c0.5,3.1,1.2,6.1,2,9.1c0.1,1-0.6,1.9-1.6,2.1c-0.1,0-0.1,0-0.2,0l-1.4,0.2 M284.3,306.7l1.7-0.2c1.1-0.2,2.1,0.5,2.3,1.6
				c0.1,3.1,0.4,6.2,0.9,9.3l-11,1.4c-0.5-3.1-1-6.3-1.2-9.2c0.1-1.1,2-2.1,3.2-2.3"/>
			<path id="path12900" class="st0" d="M284.4,327.3l-1.2,0.2c-0.9,0.1-1.6-0.5-1.9-1.3c-0.4-2.2-1-5-1.4-7.6l7.9-1
				c0.4,2.6,1,5.1,1.6,7.6c0.2,0.8-0.3,1.5-1.1,1.7c0,0-0.1,0-0.1,0l-1,0.1 M284,308.7l1.3-0.2c0.8-0.1,1.6,0.5,1.7,1.3c0,0,0,0,0,0
				c0.1,2.2,0.4,4.9,0.8,7.7l-7.9,1c-0.4-2.6-0.8-5.2-1-7.7c0.1-0.9,1.4-1.7,2.2-1.9"/>
		</g>
		<g id="g12902">
			<path id="path12904" class="st7" d="M280.9,293.2l-1.7-0.2c-1.1-0.2-1.9-1-2-2.1c0.4-2.6,0.7-6.1,1.2-9.2l11,1.4
				c-0.5,3.1-0.8,6.2-0.9,9.3c-0.2,1.1-1.2,1.8-2.3,1.6l-1.5-0.2 M287.8,271.6l1.7,0.2c1,0.1,1.8,0.9,1.7,1.9c0,0.1,0,0.1,0,0.2
				c-0.8,3-1.5,6.1-2,9.1l-11-1.4c0.5-3.2,1-6.3,1.7-9.2c0.5-1,2.6-1.5,3.8-1.4"/>
			<path id="path12906" class="st0" d="M281.5,291.3l-1.2-0.2c-0.8-0.2-1.4-0.9-1.4-1.8c0.4-2.2,0.6-5,1-7.7l7.9,1
				c-0.4,2.8-0.7,5.7-0.8,7.7c-0.1,0.8-0.8,1.4-1.7,1.3c0,0,0,0,0,0l-1-0.1 M286.9,273.2l1.2,0.2c0.8,0.1,1.3,0.8,1.2,1.6
				c0,0,0,0.1,0,0.1c-0.5,2.2-1.2,4.8-1.6,7.6l-7.9-1c0.4-2.6,0.8-5.3,1.4-7.6c0.3-0.9,1.9-1.3,2.7-1.2"/>
		</g>
		<g id="g12908">
			<path id="path12910" class="st7" d="M288.7,257.6l-1.6-0.7c-1-0.4-1.5-1.5-1.3-2.6c1.2-2.4,2.5-5.7,4-8.6l10.1,4.2
				c-1.4,2.8-2.6,5.7-3.7,8.7c-0.5,1-1.7,1.4-2.7,0.9l-1.3-0.5 M302.1,238.7l1.6,0.7c0.9,0.3,1.4,1.3,1.1,2.2c0,0.1-0.1,0.2-0.1,0.2
				c-1.7,2.7-3.3,5.4-4.8,8.2l-10.1-4.2c1.5-2.9,2.9-5.8,4.5-8.4c0.8-0.9,3-0.8,4-0.4"/>
			<path id="path12912" class="st0" d="M289.9,256l-1.1-0.5c-0.7-0.4-1.1-1.2-0.8-2c1-2,2.1-4.7,3.3-7.1l7.2,3
				c-1.3,2.6-2.4,5.3-3.2,7.2c-0.3,0.8-1.2,1.1-2,0.9l-1-0.4 M300.6,240.1l1.1,0.5c0.7,0.3,1,1.1,0.8,1.8c0,0.1-0.1,0.2-0.1,0.2
				c-1.2,1.9-2.6,4.3-3.9,6.9l-7.2-3c1.2-2.4,2.4-4.8,3.7-7c0.8-0.7,2-0.8,3-0.5"/>
		</g>
		<g id="g12914">
			<path id="path12916" class="st7" d="M307.2,225.5l-1.3-1c-0.8-0.7-1-1.9-0.4-2.8c1.9-2,4.2-4.8,6.5-7.2l8.4,6.6
				c-2.2,2.3-4.3,4.8-6.2,7.4c-0.8,0.8-2,0.9-2.9,0.2l-1.1-0.9 M325.9,210.8l1.3,1c0.8,0.5,1,1.6,0.4,2.4c-0.1,0.1-0.1,0.2-0.2,0.3
				c-2.1,1.8-4.6,4.1-7.1,6.7l-8.4-6.6c2.3-2.4,4.6-4.8,6.9-6.9c1-0.6,3.1,0,4,0.7"/>
			<path id="path12918" class="st0" d="M308.8,224.3l-1-0.7c-0.6-0.6-0.7-1.5-0.1-2.2c1.6-1.7,3.5-4,5.4-6l6,4.7
				c-2.1,2.2-4,4.5-5.3,6.1c-0.5,0.7-1.5,0.8-2.2,0.3l-0.8-0.6 M324.1,211.7l1,0.8c0.6,0.5,0.6,1.3,0.1,1.9c0,0-0.1,0.1-0.1,0.1
				c-1.8,1.6-3.8,3.4-5.9,5.6l-6-4.7c1.9-2,3.8-4,5.7-5.7c1-0.4,2.1-0.3,3,0.3"/>
		</g>
		<g id="g12920">
			<path id="path12922" class="st7" d="M334.9,199.5l-1-1.3c-0.6-0.9-0.4-2.1,0.5-2.8c2.5-1.4,5.5-3.5,8.4-5.3l6,8.5
				c-2.8,1.7-5.6,3.5-8.3,5.5c-0.9,0.6-2.2,0.3-2.8-0.6l-0.8-1.1 M357.4,190.1l0.9,1.3c0.6,0.8,0.4,1.9-0.4,2.4
				c-0.1,0.1-0.2,0.1-0.2,0.2c-2.6,1.2-5.7,2.7-8.9,4.6l-6-8.5c3-1.7,5.9-3.4,8.8-4.8c1.1-0.4,3,0.8,3.6,1.7"/>
			<path id="path12924" class="st0" d="M336.8,198.7l-0.7-1c-0.4-0.7-0.2-1.7,0.5-2.1c2-1.2,4.6-2.9,7-4.3l4.3,6.1
				c-2.7,1.6-5.2,3.3-6.9,4.5c-0.7,0.5-1.7,0.4-2.2-0.3l-0.6-0.8 M355.2,190.5l0.7,1c0.4,0.6,0.2,1.5-0.4,1.8
				c-0.1,0-0.1,0.1-0.2,0.1c-2.1,1-4.7,2.3-7.4,3.9l-4.3-6.1c2.5-1.4,4.9-2.9,7.3-4c1.1-0.2,2.1,0.3,2.8,1.1"/>
		</g>
		<g id="g12926">
			<path id="path12928" class="st7" d="M369.5,181.6L369,180c-0.3-1.1,0.3-2.2,1.3-2.6c2.8-0.8,6.4-2,9.7-2.9l3.1,9.7
				c-3.6,1-7.2,2.2-9.6,3.1c-1,0.4-2.2-0.2-2.5-1.3c0,0,0,0,0,0l-0.4-1.3 M394,178.3l0.5,1.5c0.3,0.9-0.2,2-1.2,2.3
				c-0.1,0-0.1,0-0.2,0.1c-2.9,0.5-6.3,1.1-10,2.1l-3.1-9.7c3.4-0.9,6.7-1.8,9.9-2.4c1.2-0.1,2.6,1.5,3,2.5"/>
			<path id="path12930" class="st0" d="M371.6,181.3l-0.4-1.1c-0.2-0.7,0.3-1.5,1.2-1.9c2.3-0.6,5.3-1.6,8.1-2.4l2.2,6.9
				c-3,0.8-6,1.8-8,2.5c-0.8,0.3-1.7-0.1-2-0.8l-0.3-0.9 M392,178.3l0.4,1.1c0.2,0.7-0.3,1.5-1.2,1.7c-2.4,0.4-5.2,1-8.3,1.8l-2.3-7
				c2.8-0.8,5.6-1.5,8.2-2c1,0.1,2,0.8,2.3,1.8"/>
		</g>
		<g id="g12932">
			<path id="path12934" class="st7" d="M408.3,173.3v-1.6c0.1-1.1,0.9-2,2-2.1c2.9,0,6.7-0.3,10.2-0.3v10.1c-3.8,0-7.6,0.3-10.2,0.5
				c-1,0.1-1.9-0.7-2-1.8c0,0,0,0,0-0.1v-1.3 M432.8,176.5v1.6c0,1.1-0.9,1.9-2,1.9c0,0,0,0,0,0c-2.9-0.3-6.4-0.5-10.2-0.5v-10.1
				c3.5,0,7,0,10.2,0.3c1.2,0.3,2,2.1,2,3.2"/>
			<path id="path12936" class="st0" d="M410.4,173.6v-1.1c0-0.8,0.7-1.3,1.7-1.5c2.4,0,5.6-0.2,8.5-0.2v7.2c-3.1,0-6.3,0.2-8.5,0.4
				c-1,0-1.7-0.6-1.7-1.3v-1 M430.8,175.8v1.1c0,0.8-0.7,1.3-1.7,1.3c-2.4-0.2-5.3-0.4-8.5-0.4v-7.2c2.9,0,5.8,0,8.5,0.2
				c1,0.3,1.6,1.2,1.7,2.3"/>
		</g>
		<g id="g12938">
			<path id="path12940" class="st7" d="M445.4,175.1l0.5-1.5c0.4-1,1.5-1.7,2.6-1.5c2.8,0.7,6.5,1.4,9.9,2.3l-3,9.7
				c-3.6-0.9-7.4-1.6-10-2c-1-0.2-1.6-1.1-1.5-2.1c0-0.1,0-0.1,0.1-0.2l0.4-1.3 M468.1,184.3l-0.5,1.5c-0.3,1-1.5,1.6-2.5,1.3
				c-2.7-1-6-2.1-9.7-3.1l3-9.7c3.4,0.9,6.7,1.7,9.8,2.8c1,0.6,1.3,2.6,1,3.6"/>
			<path id="path12942" class="st0" d="M447.3,175.9l0.3-1.1c0.4-0.8,1.2-1.2,2.1-1c2.3,0.6,5.4,1.2,8.2,1.9l-2.2,6.9
				c-3-0.8-6.1-1.4-8.3-1.8c-0.9-0.2-1.5-1-1.2-1.7l0.3-0.9 M466.3,183.2l-0.3,1.1c-0.3,0.8-1.2,1.1-2,0.9c-2.3-0.8-5-1.7-8.1-2.5
				l2.2-6.9c2.8,0.7,5.6,1.4,8.1,2.3c0.8,0.6,1.2,1.6,1,2.6"/>
		</g>
		<g id="g12944">
			<path id="path12946" class="st7" d="M483.1,186.9l0.9-1.4c0.7-0.9,1.9-1.2,3-0.8c2.5,1.4,5.8,3,8.8,4.7l-5.9,8.5
				c-3.2-1.8-6.6-3.4-9-4.5c-0.9-0.4-1.2-1.4-0.8-2.3c0-0.1,0.1-0.2,0.2-0.3l0.8-1.1 M501.9,201.4l-0.9,1.4
				c-0.6,0.9-1.9,1.2-2.8,0.6c-2.3-1.6-5.1-3.6-8.3-5.4l5.9-8.5c3,1.7,5.9,3.4,8.5,5.2c0.8,0.8,0.5,2.8-0.1,3.7"/>
			<path id="path12948" class="st0" d="M484.6,188.2l0.7-1c0.6-0.6,1.5-0.8,2.3-0.4c2,1.2,4.8,2.6,7.3,4l-4.2,6.1
				c-2.7-1.5-5.5-2.9-7.4-3.8c-0.7-0.3-1-1-0.8-1.7c0-0.1,0.1-0.1,0.1-0.2l0.6-0.8 M500.6,200l-0.7,1c-0.5,0.7-1.5,0.8-2.2,0.3
				c-2-1.3-4.3-2.9-7-4.4l4.2-6.1c2.5,1.4,4.9,2.8,7.1,4.3c0.6,0.8,0.6,1.9,0.1,2.8"/>
		</g>
		<g id="g12950">
			<path id="path12952" class="st7" d="M515.5,207.9l1.3-1.1c0.9-0.7,2.2-0.7,3.1,0c1.9,2,4.7,4.4,7,6.8l-8.3,6.7
				c-2.3-2.3-4.7-4.5-7.2-6.6c-0.7-0.7-0.7-1.7-0.1-2.4c0.1-0.1,0.1-0.1,0.2-0.2l1.1-0.9 M529.1,226.7l-1.3,1
				c-0.9,0.7-2.1,0.6-2.9-0.2c-2-2.5-4.1-5-6.3-7.3l8.3-6.7c2.3,2.4,4.6,4.8,6.5,7.1c0.6,1-0.4,2.8-1.3,3.5"/>
			<path id="path12954" class="st0" d="M516.7,209.5l0.9-0.8c0.7-0.5,1.7-0.4,2.4,0.2c1.6,1.6,3.8,3.7,5.8,5.7l-6,4.8
				c-2.1-2.2-4.3-4.2-5.9-5.6c-0.6-0.5-0.6-1.3-0.1-1.9c0,0,0.1-0.1,0.1-0.1l0.8-0.6 M528.3,225l-1,0.8c-0.7,0.5-1.7,0.4-2.2-0.3
				c-1.5-1.8-3.2-3.9-5.3-6l6-4.8c1.9,2,3.9,4,5.5,5.9c0.5,0.8-0.1,2.2-0.8,2.7"/>
		</g>
		<g id="g12956">
			<path id="path12958" class="st7" d="M540.2,236.3l1.6-0.7c1.1-0.4,2.3-0.1,3,0.8c1.2,2.4,3.1,5.4,4.6,8.3l-10,4.3
				c-1.5-2.8-3.1-5.6-4.9-8.2c-0.4-0.9-0.1-1.9,0.7-2.4c0.1,0,0.2-0.1,0.3-0.1l1.3-0.6 M547.5,257.9l-1.6,0.7
				c-1,0.5-2.2,0.1-2.7-0.9c-1.1-2.9-2.4-5.8-3.8-8.7l10-4.3c1.5,2.9,3,5.8,4.1,8.5c0.2,1.1-1.2,2.6-2.3,3"/>
			<path id="path12960" class="st0" d="M540.8,238.2l1.1-0.5c0.8-0.3,1.7,0,2.2,0.8c1,2,2.5,4.5,3.8,6.9l-7.2,3
				c-1.3-2.6-2.8-5.1-4-6.8c-0.4-0.6-0.2-1.5,0.4-1.9c0.1,0,0.1-0.1,0.2-0.1l1-0.4 M547.1,256l-1.1,0.5c-0.8,0.3-1.7-0.1-2-0.8
				c-0.8-2.1-1.9-4.6-3.2-7.2l7.2-3c1.2,2.4,2.5,4.8,3.4,7.1c0.2,0.9-0.8,2-1.6,2.4"/>
		</g>
		<g id="g12962">
			<path id="path12964" class="st7" d="M555.1,270l1.7-0.2c1.1-0.1,2.2,0.5,2.6,1.5c0.5,2.6,1.3,6,1.8,9.1l-11,1.5
				c-0.5-3.1-1.2-6.1-2.1-9.1c-0.2-1,0.5-1.9,1.5-2.1c0.1,0,0.1,0,0.2,0l1.4-0.2 M555.3,292.5l-1.7,0.2c-1.1,0.2-2.1-0.5-2.3-1.6
				c-0.2-3.1-0.5-6.2-1-9.3l11-1.5c0.5,3.2,1.1,6.3,1.3,9.2c-0.1,1.1-2,2.1-3.2,2.3"/>
			<path id="path12966" class="st0" d="M555,271.9l1.2-0.2c0.9-0.1,1.6,0.5,1.9,1.3c0.4,2.2,1,5,1.5,7.6l-7.8,1.1
				c-0.5-2.8-1.2-5.6-1.7-7.6c-0.2-0.8,0.3-1.5,1.1-1.7c0,0,0.1,0,0.1,0l1-0.1 M555.6,290.6l-1.2,0.2c-0.8,0.1-1.6-0.5-1.7-1.3
				c-0.2-2.2-0.4-4.9-0.9-7.7l7.8-1.1c0.4,2.6,0.9,5.2,1.1,7.7c-0.1,0.9-1.4,1.8-2.2,1.9"/>
		</g>
		<g id="g12968">
			<path id="path12970" class="st7" d="M558.9,306l1.7,0.2c1.1,0.2,1.9,1,2,2.1c-0.4,2.6-0.6,6.1-1.1,9.2l-11-1.3
				c0.4-3.1,0.7-6.2,0.8-9.3c0.2-1.1,1.2-1.8,2.3-1.6l1.5,0.2 M552.1,327.7l-1.7-0.2c-1,0-1.8-0.9-1.8-1.9c0-0.1,0-0.1,0-0.2
				c0.8-3,1.5-6.1,2-9.1l11,1.3c-0.5,3.2-0.9,6.3-1.7,9.2c-0.4,1-2.6,1.6-3.7,1.4"/>
			<path id="path12972" class="st0" d="M558.3,307.9l1.2,0.1c0.8,0.1,1.4,0.9,1.4,1.7c-0.3,2.2-0.5,5.1-0.9,7.7l-7.9-1
				c0.4-2.6,0.6-5.1,0.7-7.7c0.1-0.8,0.8-1.4,1.6-1.4c0,0,0,0,0,0l1,0.1 M553.1,326l-1.2-0.1c-0.8-0.1-1.3-0.8-1.2-1.6
				c0,0,0-0.1,0-0.1c0.5-2.2,1.1-4.8,1.5-7.6l7.9,1c-0.4,2.6-0.8,5.3-1.3,7.6c-0.3,0.9-1.9,1.3-2.7,1.2"/>
		</g>
		<g id="g12974">
			<path id="path12976" class="st7" d="M551.4,341.6l1.6,0.6c1,0.4,1.6,1.5,1.3,2.6c-1.2,2.4-2.5,5.7-3.9,8.6l-10.1-4.1
				c1.4-2.8,2.6-5.7,3.6-8.7c0.5-1,1.7-1.4,2.7-0.9l1.3,0.5 M538.3,360.7l-1.6-0.6c-0.9-0.3-1.4-1.3-1.1-2.2c0-0.1,0.1-0.2,0.1-0.2
				c1.7-2.7,3.3-5.4,4.7-8.3l10.1,4.1c-1.4,2.9-2.8,5.8-4.4,8.4c-0.7,0.9-3,0.8-4,0.4"/>
			<path id="path12978" class="st0" d="M550.3,343.2l1.2,0.5c0.7,0.4,1.1,1.2,0.8,2c-1,2-2.1,4.7-3.3,7.1l-7.3-2.9
				c1.3-2.6,2.4-5.3,3.1-7.2c0.3-0.8,1.2-1.2,2-0.9l1,0.4 M539.7,359.3l-1.1-0.5c-0.7-0.3-1-1.1-0.7-1.7c0-0.1,0.1-0.1,0.1-0.2
				c1.2-1.9,2.5-4.3,3.8-6.9l7.3,2.9c-1.2,2.4-2.4,4.8-3.7,7c-0.6,0.7-2.2,0.8-3,0.5"/>
		</g>
		<g id="g12980">
			<path id="path12982" class="st7" d="M533.2,373.9l1.3,1c0.8,0.7,1,1.9,0.5,2.8c-1.9,2-4.1,4.8-6.4,7.3l-8.5-6.5
				c2.2-2.4,4.3-4.8,6.2-7.4c0.8-0.8,2-0.9,2.9-0.2l1.1,0.9 M514.7,388.8l-1.3-1c-0.8-0.5-1-1.6-0.4-2.4c0.1-0.1,0.1-0.2,0.2-0.3
				c2.1-1.9,4.6-4.1,7.1-6.7l8.4,6.6c-2.3,2.4-4.5,4.9-6.8,6.9c-1,0.6-3.1,0-4-0.6"/>
			<path id="path12984" class="st0" d="M531.6,375.1l1,0.7c0.6,0.6,0.7,1.5,0.2,2.2c-1.6,1.7-3.5,4-5.4,6l-6-4.7
				c2-2.2,3.9-4.5,5.2-6.1c0.5-0.7,1.5-0.8,2.2-0.3l0.8,0.6 M516.5,387.8l-1-0.7c-0.6-0.5-0.6-1.3-0.1-1.9c0,0,0.1-0.1,0.1-0.1
				c1.7-1.6,3.8-3.5,5.8-5.6l6,4.7c-1.9,2-3.8,4-5.7,5.8c-1,0.4-2.1,0.3-3-0.3"/>
		</g>
		<g id="g12986">
			<path id="path12988" class="st7" d="M505.8,400.1l1,1.3c0.6,0.9,0.4,2.1-0.4,2.8c-2.4,1.5-5.5,3.6-8.4,5.3l-6.1-8.4
				c2.8-1.7,5.6-3.6,8.2-5.5c0.9-0.6,2.2-0.4,2.8,0.5l0.8,1.1 M483.4,409.7l-1-1.3c-0.6-0.8-0.4-1.8,0.3-2.4
				c0.1-0.1,0.2-0.1,0.3-0.2c2.6-1.2,5.7-2.8,8.9-4.6l6.1,8.4c-2.9,1.7-5.9,3.5-8.7,4.9c-1.1,0.4-3-0.8-3.6-1.6"/>
			<path id="path12990" class="st0" d="M503.9,401l0.7,1c0.5,0.6,0.2,1.5-0.5,2.1c-2,1.2-4.5,2.9-7,4.4l-4.4-6
				c2.6-1.6,5.2-3.3,6.9-4.5c0.7-0.5,1.7-0.4,2.2,0.3l0.6,0.8 M485.4,409.2l-0.7-1c-0.4-0.6-0.3-1.4,0.4-1.9
				c0.1-0.1,0.2-0.1,0.3-0.1c2.1-1,4.7-2.4,7.3-3.9l4.4,6c-2.4,1.5-4.9,2.9-7.2,4.1c-1.1,0.2-2.1-0.2-2.8-1.1"/>
		</g>
		<g id="g12992">
			<path id="path12994" class="st7" d="M471.4,418.3l0.5,1.5c0.3,1.1-0.3,2.2-1.3,2.6c-2.8,0.8-6.3,2-9.7,3l-3.3-9.7
				c3.6-1,7.2-2.3,9.6-3.2c1-0.4,2.2,0.2,2.5,1.2c0,0,0,0,0,0l0.4,1.3 M446.8,421.7l-0.5-1.5c-0.3-0.9,0.2-2,1.1-2.3
				c0.1,0,0.1,0,0.2-0.1c2.9-0.5,6.3-1.2,9.9-2.2l3.2,9.7c-3.4,0.9-6.7,1.9-9.9,2.4c-1.2,0.1-2.6-1.5-3-2.5"/>
			<path id="path12996" class="st0" d="M469.2,418.6l0.4,1.1c0.3,0.7-0.3,1.5-1.1,1.9c-2.3,0.6-5.3,1.7-8.1,2.4l-2.3-6.9
				c3-0.8,6-1.9,8-2.6c0.8-0.3,1.7,0.1,2,0.8l0.3,0.9 M448.9,421.8l-0.4-1.1c-0.3-0.7,0.3-1.5,1.2-1.7c2.4-0.5,5.2-1.1,8.3-1.9
				l2.3,6.9c-2.8,0.8-5.6,1.5-8.2,2.1c-1.1-0.1-2-0.8-2.4-1.7"/>
		</g>
		<g id="g12998">
			<path id="path13000" class="st7" d="M432.6,427v1.6c-0.1,1.1-0.9,2-2,2.1c-2.9,0-6.7,0.3-10.2,0.4l-0.1-10.1
				c3.8,0,7.6-0.3,10.2-0.6c1.1-0.1,2,0.7,2.1,1.8c0,0,0,0.1,0,0.1v1.3 M408.1,424v-1.6c0-1.1,0.9-1.9,1.9-1.9c0,0,0,0,0.1,0
				c2.9,0.2,6.4,0.5,10.2,0.4l0.1,10.1c-3.5,0-7,0.1-10.2-0.2c-1.2-0.3-2.1-2.1-2.1-3.2"/>
			<path id="path13002" class="st0" d="M430.6,426.6v1.1c0,0.8-0.7,1.3-1.7,1.5c-2.4,0-5.6,0.2-8.5,0.3l-0.1-7.2
				c3.1,0,6.3-0.2,8.5-0.4c1,0,1.7,0.5,1.7,1.3v1 M410.1,424.5v-1.1c0-0.8,0.7-1.3,1.7-1.3c2.4,0.2,5.3,0.3,8.5,0.3l0.1,7.2
				c-2.9,0-5.8,0-8.5-0.1c-1-0.4-1.6-1.2-1.7-2.3"/>
		</g>
	</g>
</g>
</svg>
