<svg id="Layer_1" data-name="Layer 1" xmlns="http://www.w3.org/2000/svg" viewBox="0 0 13.48 12.46"><defs><style>.cls-1{fill:#50a5dc;}.cls-2{fill:#7ac943;}</style></defs><path class="cls-1" d="M7.05,11.2a1.48,1.48,0,0,1-.68-.5l-.44-.57a.41.41,0,0,1-.07-.22l0-1.22a.35.35,0,0,1,.31-.37.39.39,0,0,0,.32-.41l0-.35a.39.39,0,0,0-.15-.26L6,7.1a1.42,1.42,0,0,0-.86-.29H5l-.24,0-.63-.1A5.32,5.32,0,0,0,4,7.5a5.87,5.87,0,0,0,3.2,5.14l.13-.94A.46.46,0,0,0,7.05,11.2Z" transform="translate(-3.76 -1.27)"/><path class="cls-1" d="M16.26,9.25l0-.05a.39.39,0,0,0-.44-.12l-.28.1a1.23,1.23,0,0,1-.57.06h-.08a1.25,1.25,0,0,1-1-.74,1.29,1.29,0,0,1-.08-.75l.17-.87a1.28,1.28,0,0,1,.33-.63l.07-.07a1.24,1.24,0,0,1,1.1-.37l.45.07h0l.88.21a5.71,5.71,0,0,0-.69-1.58l-.55-.08h0l-.6-.13a.28.28,0,0,0-.35.29.3.3,0,0,1-.13.25l-.39.26a.29.29,0,0,1-.3,0l-.55-.31A.38.38,0,0,1,13,4.35l.12-.53a.41.41,0,0,1,.38-.31H14a.4.4,0,0,0,.39-.4V2.71A6.77,6.77,0,0,0,10.5,1.54a6.45,6.45,0,0,0-1.17.1,1.32,1.32,0,0,1,.52.66l0,0A1.25,1.25,0,0,1,10,2.7l0,.12a1.37,1.37,0,0,1-.12.75l-.14.33a1.47,1.47,0,0,1-.56.65L9,4.66a.37.37,0,0,0-.16.3l0,.5a.34.34,0,0,1-.37.35.33.33,0,0,1-.26-.18L8,5.22a.34.34,0,0,0-.2-.17L7,4.83a.61.61,0,0,0-.44,0L6.37,5A.65.65,0,0,0,6,5.69H6A.56.56,0,0,0,6.18,6l.51.51.1.12.35.43a.55.55,0,0,0,.43.2h1A.55.55,0,0,1,9,7.53a.56.56,0,0,0,.36.26l.36.08a.52.52,0,0,1,.36.27l.18.32a.42.42,0,0,0,.19.18l.81.41a.46.46,0,0,1,.24.46.39.39,0,0,1-.15.28l-.31.27a.57.57,0,0,0-.12.18l-.07.18a.51.51,0,0,1-.26.28l-.33.13a.49.49,0,0,0-.3.45.59.59,0,0,1-.05.22L9,13.29a7,7,0,0,0,1.53.17A6.54,6.54,0,0,0,16.37,10l0-.54A.33.33,0,0,0,16.26,9.25Z" transform="translate(-3.76 -1.27)"/><path class="cls-2" d="M10,11.28a.49.49,0,0,1,.3-.45l.33-.13a.51.51,0,0,0,.26-.28l.07-.18a.57.57,0,0,1,.12-.18l.31-.27a.39.39,0,0,0,.15-.28.46.46,0,0,0-.24-.46l-.81-.41a.42.42,0,0,1-.19-.18l-.18-.32a.52.52,0,0,0-.36-.27l-.36-.08A.56.56,0,0,1,9,7.53a.55.55,0,0,0-.47-.27h-1a.55.55,0,0,1-.43-.2l-.35-.43-.1-.12L6.18,6A.56.56,0,0,1,6,5.69H6A.65.65,0,0,1,6.37,5l.19-.08a.61.61,0,0,1,.44,0l.79.22a.34.34,0,0,1,.2.17l.23.41a.33.33,0,0,0,.26.18.34.34,0,0,0,.37-.35l0-.5A.37.37,0,0,1,9,4.66l.18-.11a1.47,1.47,0,0,0,.56-.65l.14-.33A1.37,1.37,0,0,0,10,2.82l0-.12a1.25,1.25,0,0,0-.09-.37l0,0a1.32,1.32,0,0,0-.52-.66A6.2,6.2,0,0,0,4.09,6.69l.63.1.24,0h.18A1.42,1.42,0,0,1,6,7.1l.28.2a.39.39,0,0,1,.15.26l0,.35a.39.39,0,0,1-.32.41.35.35,0,0,0-.31.37l0,1.22a.41.41,0,0,0,.07.22l.44.57a1.48,1.48,0,0,0,.68.5.46.46,0,0,1,.31.5l-.13.94A6.72,6.72,0,0,0,9,13.29l.94-1.79A.59.59,0,0,0,10,11.28Z" transform="translate(-3.76 -1.27)"/><path class="cls-2" d="M14,3.5h-.46a.41.41,0,0,0-.38.31L13,4.35a.38.38,0,0,0,.19.43l.55.31a.29.29,0,0,0,.3,0l.39-.26a.3.3,0,0,0,.13-.25.28.28,0,0,1,.35-.29l.6.13h0l.55.08a6.12,6.12,0,0,0-1.75-1.8V3.1A.4.4,0,0,1,14,3.5Z" transform="translate(-3.76 -1.27)"/><path class="cls-2" d="M16.79,6.09l-.88-.21h0l-.45-.07a1.24,1.24,0,0,0-1.1.37l-.07.07a1.28,1.28,0,0,0-.33.63l-.17.87a1.29,1.29,0,0,0,.08.75,1.25,1.25,0,0,0,1,.74h.08a1.23,1.23,0,0,0,.57-.06l.28-.1a.39.39,0,0,1,.44.12l0,.05a.33.33,0,0,1,.09.23l0,.54A5.64,5.64,0,0,0,17,7.5,5.51,5.51,0,0,0,16.79,6.09Z" transform="translate(-3.76 -1.27)"/><path d="M15.47,9.91a.26.26,0,0,0-.37.05c-.13.15-.26.3-.4.44a.28.28,0,0,0,.19.46.32.32,0,0,0,.2-.08c.15-.16.29-.32.43-.49A.27.27,0,0,0,15.47,9.91Z" transform="translate(-3.76 -1.27)"/><path d="M14,11a6.48,6.48,0,0,1-3.56,1.29.27.27,0,0,0-.25.28.27.27,0,0,0,.27.26h0a7.13,7.13,0,0,0,3.85-1.4A.27.27,0,0,0,14,11Z" transform="translate(-3.76 -1.27)"/><path d="M17.05,6h0a6.1,6.1,0,0,0-.72-1.66A6.51,6.51,0,0,0,14.5,2.49a7,7,0,0,0-4-1.22,6.89,6.89,0,0,0-1.21.1A7,7,0,0,0,6.2,2.7a6.13,6.13,0,0,0-2.38,4,6.07,6.07,0,0,0-.06.85,5.9,5.9,0,0,0,.92,3.15A6.58,6.58,0,0,0,7.1,12.88h0a6.67,6.67,0,0,0,1.81.67,7.17,7.17,0,0,0,5.25-.82,6.42,6.42,0,0,0,2.45-2.59,5.8,5.8,0,0,0,.63-2.64A5.72,5.72,0,0,0,17.05,6ZM15.51,4.15,15,4a.6.6,0,0,0-.48.12.55.55,0,0,0-.2.45v0l-.39.25h0l-.55-.31a.13.13,0,0,1-.06-.14l.12-.53a.14.14,0,0,1,.12-.1H14a.67.67,0,0,0,.63-.53A5.17,5.17,0,0,1,15.51,4.15ZM4.3,7.5a4.18,4.18,0,0,1,0-.5l.36.06.28,0h.18a1.17,1.17,0,0,1,.7.23l.28.21a.08.08,0,0,1,0,.07l0,.34a.11.11,0,0,1-.09.12.65.65,0,0,0-.54.65l0,1.21a.65.65,0,0,0,.13.38l.44.58a1.65,1.65,0,0,0,.81.58.21.21,0,0,1,.13.21L7,12.21A5.6,5.6,0,0,1,4.3,7.5Zm2.84,3.44a1.17,1.17,0,0,1-.56-.4L6.15,10a.08.08,0,0,1,0-.07l0-1.21a.09.09,0,0,1,.08-.11.63.63,0,0,0,.54-.7l0-.35a.63.63,0,0,0-.25-.45l-.28-.2a1.71,1.71,0,0,0-1-.34H4.77L4.4,6.47A5.59,5.59,0,0,1,6.53,3.13,6.42,6.42,0,0,1,9.26,1.92a1.35,1.35,0,0,1,.35.47v0a1.67,1.67,0,0,1,.08.3v.12a1.26,1.26,0,0,1-.09.61l-.15.34A1.14,1.14,0,0,1,9,4.32l-.18.12A.59.59,0,0,0,8.55,5l0,.49a.08.08,0,0,1,0,0l-.05,0a.07.07,0,0,1-.06,0l-.22-.41a.65.65,0,0,0-.37-.3l-.79-.22a.94.94,0,0,0-.62,0l-.19.09A.91.91,0,0,0,6,6.19l.51.51a.39.39,0,0,1,.08.1l.36.43a.8.8,0,0,0,.63.3h1a.27.27,0,0,1,.24.14.83.83,0,0,0,.53.38l.36.08a.27.27,0,0,1,.19.14l.17.31a.72.72,0,0,0,.3.3l.82.41a.18.18,0,0,1,.09.19.16.16,0,0,1-.05.11l-.31.27a.72.72,0,0,0-.2.29l-.07.18a.25.25,0,0,1-.11.12l-.33.13a.75.75,0,0,0-.47.7.29.29,0,0,1,0,.09L8.83,13a5.89,5.89,0,0,1-1.31-.49l.11-.75A.74.74,0,0,0,7.14,10.94Zm3.36,2.25a7.08,7.08,0,0,1-1.13-.09l.77-1.48a.67.67,0,0,0,.09-.34.21.21,0,0,1,.13-.2l.33-.14a.77.77,0,0,0,.42-.43l.06-.18.05-.07.31-.27a.74.74,0,0,0,.24-.45.72.72,0,0,0-.39-.73l-.81-.41a.19.19,0,0,1-.08-.07L10.32,8a.82.82,0,0,0-.55-.41l-.36-.07a.31.31,0,0,1-.18-.14.82.82,0,0,0-.7-.4h-1a.27.27,0,0,1-.22-.1L7,6.46l-.12-.14-.51-.51a.32.32,0,0,1-.1-.18.38.38,0,0,1,.21-.43l.19-.09a.39.39,0,0,1,.26,0l.79.22,0,0L8,5.76a.61.61,0,0,0,.95.15.63.63,0,0,0,.19-.47l0-.49a.07.07,0,0,1,0-.06l.18-.11A1.7,1.7,0,0,0,10,4l.15-.33a1.7,1.7,0,0,0,.13-.89V2.67a1.6,1.6,0,0,0-.11-.43l0,0a1.85,1.85,0,0,0-.19-.37h0l.59,0a6.6,6.6,0,0,1,3.59,1V3.1a.13.13,0,0,1-.13.13l-.46,0a.65.65,0,0,0-.63.51l-.12.53a.67.67,0,0,0,.31.73l.55.31a.55.55,0,0,0,.28.07.53.53,0,0,0,.3-.09l.39-.25a.58.58,0,0,0,.26-.49v0h0l.6.14h0l.43.07h0a5.6,5.6,0,0,1,.45,1L16,5.62h-.05l-.46-.07A1.52,1.52,0,0,0,14.13,6l-.07.08a1.46,1.46,0,0,0-.39.76l-.18.87A1.53,1.53,0,0,0,14.82,9.5h.08a1.48,1.48,0,0,0,.69-.08l.28-.1a.14.14,0,0,1,.15,0l0,.05a.09.09,0,0,1,0,.07l0,.47A6.3,6.3,0,0,1,10.5,13.19Zm6-4.12,0,0a.66.66,0,0,0-.51-.25.93.93,0,0,0-.23,0l-.28.11A1.16,1.16,0,0,1,15,9h-.08a1,1,0,0,1-.8-.59A1,1,0,0,1,14,7.8l.17-.88a1,1,0,0,1,.26-.49l.07-.07a1,1,0,0,1,.87-.29l.45.07h0l.72.18A5.14,5.14,0,0,1,16.7,7.5,5.2,5.2,0,0,1,16.46,9.07Z" transform="translate(-3.76 -1.27)"/></svg>